<svg version="1.1" id="Layer_1" xmlns="http://www.w3.org/2000/svg" xmlns:xlink="http://www.w3.org/1999/xlink" x="0px" y="0px"
	 width="100%" viewBox="0 0 200 200" enable-background="new 0 0 200 200" xml:space="preserve">
<path fill="#FFFEFE" opacity="1.000000" stroke="none" 
	d="
M118.000000,201.000000 
	C78.690948,201.000000 39.881901,201.000000 1.036424,201.000000 
	C1.036424,134.399323 1.036424,67.798615 1.036424,1.098956 
	C67.558884,1.098956 134.117950,1.098956 200.838516,1.098956 
	C200.838516,67.666351 200.838516,134.333145 200.838516,201.000000 
	C173.465561,201.000000 145.982788,201.000000 118.000000,201.000000 
M124.698692,176.042816 
	C125.120087,175.967621 125.541481,175.892426 126.687775,175.810730 
	C130.191360,173.900223 133.694962,171.989716 137.808884,170.166428 
	C138.187225,170.086655 138.565582,170.006897 139.641479,169.838837 
	C153.734787,161.489655 164.677551,150.292740 171.637283,134.560974 
	C172.415024,132.735123 173.319122,130.951859 173.951096,129.076874 
	C180.849731,108.609001 180.885574,88.451645 171.046295,68.063438 
	C160.948029,47.453663 145.156677,33.496666 122.485207,26.501898 
	C120.634651,26.084921 118.784088,25.667942 116.157997,24.967230 
	C106.768356,24.978121 97.378723,24.989014 87.324028,24.872383 
	C86.887039,24.968540 86.450058,25.064695 85.285812,25.087944 
	C83.494003,25.632395 81.702202,26.176846 79.128754,26.738077 
	C71.544327,30.433388 63.931652,34.072430 56.391617,37.856205 
	C53.934063,39.089462 51.665947,40.700211 48.501740,41.999317 
	C41.985626,40.017452 41.434856,40.441715 42.005825,46.986076 
	C42.077473,47.807297 42.115978,48.631413 41.839447,50.049625 
	C40.659863,51.295292 39.198959,52.375961 38.353416,53.817554 
	C35.811798,58.150845 33.510075,62.624847 30.390903,67.088669 
	C28.230106,67.931213 26.969147,69.022247 29.242683,71.674683 
	C28.979948,72.172035 28.717213,72.669395 27.654202,73.157150 
	C26.774811,76.780746 25.895422,80.404343 25.073473,84.530724 
	C25.002977,84.683968 24.932482,84.837212 24.101503,84.998421 
	C21.857792,85.878670 19.614080,86.758919 18.663914,87.131691 
	C20.324690,89.890923 21.735336,92.234589 23.388134,95.039124 
	C23.276487,95.359215 23.164841,95.679298 22.334227,95.989250 
	C21.110926,95.814026 19.887625,95.638802 19.842827,95.632385 
	C19.448458,101.247002 19.073088,106.591164 18.734943,111.405319 
	C20.174952,112.828606 21.626884,114.263680 23.960022,116.569733 
	C17.717312,116.128410 17.717312,116.128410 18.805279,120.630760 
	C20.819757,120.429832 22.839266,120.228409 25.117146,120.710686 
	C25.679073,122.810394 26.241001,124.910103 26.353060,127.516541 
	C26.919353,128.672501 27.485647,129.828476 28.409822,131.361893 
	C28.457771,131.528503 28.505718,131.695129 27.892296,132.144928 
	C26.060232,135.393478 28.586763,136.103043 31.218077,137.627121 
	C33.614029,144.106598 38.238640,149.036224 42.892002,154.692307 
	C43.224571,154.935928 43.557137,155.179535 44.115456,155.995926 
	C45.389973,157.045868 46.664490,158.095795 48.078419,159.749084 
	C48.677185,160.280762 49.275948,160.812439 50.118347,161.891861 
	C51.089485,162.555038 52.060627,163.218231 53.353416,164.393143 
	C53.867016,164.696503 54.380615,164.999863 55.186176,165.862717 
	C56.447521,166.597870 57.708870,167.333023 59.227745,168.584732 
	C59.821774,169.046814 60.415798,169.508911 61.334175,170.474854 
	C61.703987,170.600891 62.073795,170.726929 62.793205,170.843567 
	C62.793205,170.843567 62.992493,171.130951 63.003262,171.837448 
	C63.747036,175.911133 66.525452,174.476669 68.982307,173.992508 
	C68.982307,173.992508 68.979347,174.049744 69.007889,174.804764 
	C74.338783,177.202957 79.669685,179.601135 85.244385,182.411728 
	C85.594276,182.396652 85.944168,182.381577 86.294060,182.366501 
	C85.862404,182.244598 85.430748,182.122681 85.124382,181.286789 
	C86.064812,181.017700 86.990822,180.605988 87.948662,180.509155 
	C89.949707,180.306885 91.967545,180.270782 94.725906,180.032791 
	C95.481308,180.075943 96.236717,180.119110 96.811256,180.889404 
	C94.474075,181.555191 92.136887,182.220978 89.799706,182.886765 
	C95.255379,183.956085 100.612396,184.107010 105.941063,183.786514 
	C106.703224,183.740662 107.328270,181.415146 108.648499,179.915359 
	C109.092140,179.932404 109.535789,179.949448 110.402512,180.497284 
	C111.606804,180.063995 112.811089,179.630707 114.695831,179.013885 
	C115.397842,178.978012 116.099854,178.942123 117.297928,179.159256 
	C117.532257,179.439713 117.766586,179.720154 117.724960,180.108063 
	C117.816406,180.071762 117.907860,180.035477 118.775497,179.999466 
	C120.612732,180.267929 122.449966,180.536392 124.757774,180.873627 
	C124.033859,179.347733 123.526054,178.277359 123.479988,176.935303 
	C123.674072,176.645752 123.868164,176.356216 124.006149,175.998886 
	C124.006149,175.998886 124.046143,176.076843 124.698692,176.042816 
M116.922493,182.207672 
	C115.781769,182.322754 114.641045,182.437836 113.500320,182.552917 
	C113.631088,183.094727 113.761848,183.636536 113.892616,184.178345 
	C115.078522,183.674545 116.264427,183.170761 116.922493,182.207672 
z"/>
<path fill="#D1292A" opacity="1.000000" stroke="none" 
	d="
M24.861986,84.990456 
	C24.932482,84.837212 25.002977,84.683968 25.257933,83.982269 
	C26.446421,80.011467 27.450451,76.589104 28.454479,73.166748 
	C28.717213,72.669395 28.979948,72.172035 29.505051,71.171463 
	C30.216534,69.460144 30.665648,68.252052 31.114761,67.043953 
	C33.510075,62.624847 35.811798,58.150845 38.353416,53.817554 
	C39.198959,52.375961 40.659863,51.295292 42.357330,49.695183 
	C45.020542,46.939930 47.165863,44.539120 49.311188,42.138313 
	C51.665947,40.700211 53.934063,39.089462 56.391617,37.856205 
	C63.931652,34.072430 71.544327,30.433388 79.712524,26.988419 
	C82.201889,26.546125 84.107475,25.853489 86.013069,25.160851 
	C86.450058,25.064695 86.887039,24.968540 87.715416,25.290367 
	C89.311729,26.342768 90.506447,27.489695 91.723526,27.513941 
	C95.150642,27.582222 98.586960,27.188818 102.457077,26.983650 
	C105.638092,27.429090 108.381676,27.868305 111.125259,28.307520 
	C111.953117,28.596790 113.042381,27.809935 114.215164,27.654936 
	C117.128067,27.269953 120.079071,27.173246 123.014778,26.960762 
	C145.156677,33.496666 160.948029,47.453663 171.027405,68.739334 
	C170.675064,69.943802 170.341614,70.472374 169.789673,70.735748 
	C168.707901,69.799164 167.925476,68.950760 166.957474,68.508659 
	C166.077957,68.106972 164.996628,68.147202 163.777542,68.138962 
	C163.700760,68.857178 163.850677,69.429039 164.001633,70.424149 
	C164.405579,74.254623 164.808487,77.661842 165.276764,81.621780 
	C163.533325,81.124130 162.536102,80.839485 160.913559,80.376343 
	C160.591660,84.472466 160.295822,88.237000 160.000000,92.000763 
	C160.000000,92.000000 160.001556,91.999672 159.638870,92.068451 
	C158.544006,93.593094 157.811829,95.048950 156.790573,97.079636 
	C156.186859,95.160416 155.757385,93.795052 154.898285,91.063896 
	C154.036591,94.658783 153.518478,96.820267 152.715759,98.871216 
	C151.670975,98.508499 150.910797,98.256302 150.051880,97.615875 
	C150.269562,94.971252 150.586014,92.714867 150.707275,90.077103 
	C148.918503,89.465889 147.325928,89.045280 145.731094,89.036476 
	C133.159637,88.967018 120.587738,88.976204 108.050873,88.614883 
	C109.880562,84.679024 111.675362,81.089462 113.977951,76.484344 
	C112.380455,77.066589 111.833229,77.403542 111.713005,77.289665 
	C108.994934,74.715218 105.987617,74.385727 102.654640,75.933426 
	C102.603851,75.957008 102.174316,75.164940 101.858269,74.422058 
	C102.147491,72.402718 102.499969,70.714859 102.989822,68.685547 
	C102.955368,67.654152 102.783554,66.964218 102.810966,66.022171 
	C102.982063,65.607506 102.955070,65.302681 102.925652,65.302437 
	C89.279106,65.193176 75.632401,65.100403 61.985584,65.077499 
	C61.854855,65.077278 61.722557,66.009834 61.294312,66.708153 
	C55.166187,68.360588 52.970394,73.051048 50.764385,78.170883 
	C48.624012,84.695999 46.677528,91.042244 45.079906,97.475128 
	C44.570377,99.526756 44.986866,101.808357 44.991524,104.405876 
	C42.309345,117.055824 44.015556,120.913620 53.946980,125.027763 
	C55.044037,126.576294 55.995079,127.815598 56.959522,129.378448 
	C56.968628,130.134201 56.964333,130.566406 56.587234,131.080368 
	C55.073544,135.178360 53.932655,139.194611 52.791763,143.210861 
	C53.167103,143.319244 53.542442,143.427628 53.917786,143.536011 
	C54.718719,142.855347 55.519653,142.174667 57.319881,140.644760 
	C55.706451,148.064224 54.370033,154.209824 53.035919,160.344818 
	C57.457111,161.773010 59.469856,160.813980 59.017879,156.490005 
	C58.897652,155.339844 58.998333,154.166580 58.998795,153.001953 
	C59.000000,153.000000 59.002720,152.997406 59.376549,153.075165 
	C60.617180,155.684189 61.412144,158.242950 62.367775,160.740219 
	C63.769821,164.404083 62.463943,166.720566 58.970215,168.068192 
	C57.708870,167.333023 56.447521,166.597870 54.985310,165.278442 
	C54.525227,164.131195 54.266006,163.568192 54.143616,162.948715 
	C54.185265,162.925949 54.090076,162.959686 53.788952,163.086853 
	C53.321846,163.353104 53.138100,163.586823 53.031769,163.881409 
	C52.060627,163.218231 51.089485,162.555038 50.051498,161.247070 
	C50.565578,158.962524 51.146511,157.322769 51.727440,155.682999 
	C51.369507,155.481033 51.011574,155.279053 50.653637,155.077087 
	C49.748760,156.433304 48.843880,157.789520 47.939003,159.145737 
	C46.664490,158.095795 45.389973,157.045868 43.910347,155.400650 
	C43.361015,154.569733 43.016792,154.334091 42.672569,154.098465 
	C38.238640,149.036224 33.614029,144.106598 30.966129,137.008362 
	C29.994011,134.880325 29.273838,133.371048 28.553665,131.861755 
	C28.505718,131.695129 28.457771,131.528503 28.241859,130.820435 
	C27.650242,129.189270 27.226585,128.099533 26.802929,127.009811 
	C26.241001,124.910103 25.679073,122.810394 25.024837,119.952225 
	C24.306082,111.462303 23.679638,103.730843 23.053192,95.999390 
	C23.164841,95.679298 23.276487,95.359215 23.512527,94.465897 
	C24.045277,90.925262 24.453630,87.957863 24.861986,84.990456 
M159.986526,72.289772 
	C159.736145,71.652939 159.485764,71.016098 159.235397,70.379265 
	C158.709885,70.404282 158.184372,70.429298 157.658875,70.454323 
	C157.439240,74.302979 157.219620,78.151642 156.937271,82.690575 
	C156.625458,83.792831 156.313644,84.895081 155.666901,86.175003 
	C155.777740,86.449699 155.888565,86.724396 156.434387,87.475395 
	C159.579102,83.130821 160.927017,78.343842 159.986526,72.289772 
M117.825211,38.034164 
	C117.140305,40.348827 116.455399,42.663486 115.770500,44.978149 
	C116.402245,45.144444 117.033989,45.310738 117.665733,45.477032 
	C118.630455,40.879677 119.595184,36.282326 120.559906,31.684971 
	C119.951546,31.576963 119.343185,31.468958 118.734825,31.360950 
	C118.476021,33.317486 118.217216,35.274017 117.825211,38.034164 
M50.022865,59.332130 
	C50.329617,60.068325 50.636368,60.804523 50.943115,61.540718 
	C51.141636,57.174225 55.200851,53.337250 52.853893,48.091156 
	C51.755672,52.205070 50.909306,55.375530 50.022865,59.332130 
M50.847572,136.140045 
	C50.651031,137.205444 50.454491,138.270828 50.257950,139.336227 
	C50.746769,139.426361 51.235588,139.516495 51.724407,139.606644 
	C52.517052,136.063126 53.309696,132.519623 54.102341,128.976105 
	C53.675842,128.865189 53.249348,128.754272 52.822849,128.643356 
	C52.225040,130.891281 51.627228,133.139191 50.847572,136.140045 
M48.466248,146.088638 
	C48.139755,148.422195 47.813263,150.755768 47.486774,153.089325 
	C47.870453,153.117996 48.254135,153.146667 48.637814,153.175339 
	C49.375340,149.681641 50.112865,146.187943 50.850391,142.694244 
	C50.462048,142.600479 50.073704,142.506729 49.685364,142.412979 
	C49.375443,143.400208 49.065525,144.387451 48.466248,146.088638 
M48.652969,135.993713 
	C47.739384,137.172165 46.825802,138.350632 45.912216,139.529083 
	C46.404449,139.862930 46.896679,140.196777 47.388908,140.530640 
	C47.800488,139.239502 48.212067,137.948380 48.652969,135.993713 
M45.361538,145.578720 
	C44.905285,146.765884 44.449036,147.953049 43.992783,149.140213 
	C44.526516,149.258759 45.060253,149.377289 45.593990,149.495819 
	C45.664833,148.369614 45.735672,147.243393 45.361538,145.578720 
M161.129654,64.843086 
	C160.470337,65.447250 159.811005,66.051422 159.151688,66.655586 
	C159.745941,67.022980 160.340210,67.390373 160.934464,67.757759 
	C161.147873,66.952690 161.361267,66.147614 161.129654,64.843086 
M162.290955,62.548714 
	C162.335693,61.897884 162.380447,61.247051 162.425186,60.596222 
	C162.149109,60.592381 161.873047,60.588535 161.596970,60.584694 
	C161.626266,61.237141 161.655579,61.889591 162.290955,62.548714 
M52.288116,151.542404 
	C52.400112,150.963882 52.512108,150.385361 52.624104,149.806839 
	C52.213577,149.801788 51.803055,149.796722 51.392525,149.791656 
	C51.490334,150.372849 51.588142,150.954056 52.288116,151.542404 
M49.524948,63.627602 
	C49.470482,63.840221 49.416012,64.052841 49.361546,64.265465 
	C49.495300,64.128906 49.629055,63.992348 49.524948,63.627602 
M49.588234,130.516800 
	C49.588234,130.516800 49.475620,130.584763 49.588234,130.516800 
z"/>
<path fill="#D02829" opacity="1.000000" stroke="none" 
	d="
M116.801865,178.906250 
	C116.099854,178.942123 115.397842,178.978012 114.007996,179.063324 
	C112.206581,179.397354 111.093002,179.681915 109.979431,179.966492 
	C109.535789,179.949448 109.092140,179.932404 107.945427,179.975006 
	C103.825607,180.077179 100.408867,180.119720 96.992119,180.162277 
	C96.236717,180.119110 95.481308,180.075943 93.966156,180.023499 
	C91.138268,179.641418 89.070137,179.268616 87.055527,178.507965 
	C88.032471,173.664490 89.579262,169.217194 89.639046,164.750000 
	C89.673401,162.183640 87.297340,159.584991 85.753540,156.999512 
	C85.332237,156.996582 85.163750,156.994995 84.995995,156.628357 
	C85.328094,155.175339 85.659462,154.087357 86.325912,153.000549 
	C87.107674,153.001526 87.554359,153.001373 88.039520,153.281952 
	C88.302147,153.704498 88.526291,153.846313 88.750443,153.988113 
	C88.818909,153.868942 88.933510,153.755493 88.949089,153.629776 
	C89.305565,150.752274 89.651253,147.873459 89.999130,144.565460 
	C89.666649,141.757767 89.333984,139.379471 88.894241,136.782684 
	C88.589493,136.291092 88.329704,136.104462 88.005569,135.673416 
	C88.004036,134.901733 88.004723,134.460907 88.386978,134.011780 
	C90.751076,134.181335 92.764656,134.631439 94.701637,134.410370 
	C95.540474,134.314636 96.221336,132.834854 96.988419,131.745529 
	C97.002876,131.507294 97.032570,131.030899 97.291809,131.253021 
	C97.987740,132.520477 98.424423,133.565811 99.297218,135.655121 
	C101.013901,129.589172 102.389160,124.729652 103.463821,120.932312 
	C101.956268,118.794792 100.971725,117.398842 100.034698,115.618874 
	C101.032898,111.761963 101.983597,108.289078 102.946297,104.598862 
	C102.958305,104.381538 102.903717,103.949661 102.942657,103.957748 
	C102.981590,103.965836 102.956688,103.890297 103.220673,103.879807 
	C103.650246,103.809349 103.815849,103.749382 104.255951,103.776886 
	C104.711090,103.929657 104.891716,103.994965 105.067482,104.308197 
	C105.218872,104.815384 105.375107,105.074654 105.531357,105.333916 
	C105.684258,104.903168 105.837151,104.472420 105.936600,103.961395 
	C105.883141,103.881111 105.947517,103.699280 106.209137,103.767303 
	C106.644829,103.788635 106.818886,103.741943 107.251068,103.766403 
	C107.675705,103.901855 107.842224,103.966141 107.987625,104.433983 
	C107.605568,107.354286 107.244629,109.871033 107.034721,111.334663 
	C109.652298,112.972221 111.256508,113.975815 112.875748,115.348129 
	C112.691185,116.156944 112.491600,116.597031 111.992035,117.120201 
	C110.129646,119.133865 108.567230,121.064461 106.989342,122.755920 
	C106.856567,122.242699 106.739265,121.968590 106.621964,121.694489 
	C106.499161,121.781754 106.265327,121.939713 106.269417,121.946152 
	C106.498878,122.306473 106.748192,122.654160 106.974174,123.317123 
	C106.564125,125.743301 106.175415,127.855469 105.786705,129.967636 
	C105.362877,129.926941 104.939041,129.886261 104.515213,129.845566 
	C105.387115,131.040192 106.259018,132.234802 107.255676,133.495270 
	C107.380424,133.561111 107.435600,133.837784 107.024612,133.927002 
	C105.087715,139.320541 103.538315,144.618408 102.078339,149.940796 
	C101.955223,150.389648 102.431572,151.002930 102.847023,152.130325 
	C103.801994,150.344666 104.440063,149.151566 105.526695,147.976364 
	C108.972527,148.056976 111.969795,148.119705 114.975662,148.563385 
	C114.985703,149.960449 114.987137,150.976547 114.767906,152.097610 
	C114.274879,152.405640 114.094978,152.671356 113.730591,153.226166 
	C113.304535,154.630569 113.155426,155.808487 113.050888,157.381760 
	C113.730888,160.519302 114.366333,163.261520 114.894241,166.221710 
	C114.588806,166.712021 114.329292,166.898697 113.744926,167.208710 
	C113.655083,168.613129 113.828499,169.808563 114.043762,171.324158 
	C114.724052,172.096024 115.362480,172.547714 116.251053,173.000061 
	C116.667953,173.001358 116.834717,173.001968 116.862930,173.321869 
	C116.483627,174.754333 116.242882,175.867523 116.132355,177.224762 
	C116.557518,177.685196 116.852448,177.901581 117.061920,178.315445 
	C116.976448,178.512909 116.801865,178.906250 116.801865,178.906250 
M110.026237,163.911911 
	C110.186684,165.434402 110.347137,166.956894 110.507591,168.479385 
	C110.891045,168.431458 111.274498,168.383530 111.657951,168.335602 
	C112.033287,166.074493 112.408630,163.813400 112.783966,161.552307 
	C112.494270,161.434387 112.204575,161.316467 111.914879,161.198547 
	C111.317070,161.847351 110.719261,162.496140 110.026237,163.911911 
M113.532562,175.758209 
	C113.404396,176.149811 113.255142,176.536728 113.166023,176.937042 
	C113.148384,177.016266 113.361801,177.146942 113.468666,177.253906 
	C113.596611,176.862366 113.724556,176.470840 113.532562,175.758209 
z"/>
<path fill="#D02729" opacity="1.000000" stroke="none" 
	d="
M59.098976,168.326462 
	C62.463943,166.720566 63.769821,164.404083 62.367775,160.740219 
	C61.412144,158.242950 60.617180,155.684189 59.375298,152.677948 
	C58.828930,150.957703 58.657642,149.712448 58.486355,148.467178 
	C58.094990,148.505127 57.703625,148.543076 57.312260,148.581024 
	C56.808643,151.683380 56.305027,154.785751 55.801411,157.888107 
	C56.024780,157.943008 56.248154,157.997910 56.471523,158.052811 
	C57.313545,156.369843 58.155563,154.686874 58.997589,153.003922 
	C58.998333,154.166580 58.897652,155.339844 59.017879,156.490005 
	C59.469856,160.813980 57.457111,161.773010 53.035919,160.344818 
	C54.370033,154.209824 55.706451,148.064224 57.319881,140.644760 
	C55.519653,142.174667 54.718719,142.855347 53.917786,143.536011 
	C53.542442,143.427628 53.167103,143.319244 52.791763,143.210861 
	C53.932655,139.194611 55.073544,135.178360 56.849392,131.356262 
	C62.655949,132.029938 67.827545,132.509445 73.332710,132.988922 
	C74.111031,132.990387 74.555779,132.991898 75.195892,133.244354 
	C78.259163,134.323242 81.127068,135.151169 84.003098,136.364288 
	C84.907127,141.773682 84.753090,146.443588 78.332298,149.677994 
	C81.129242,149.839523 82.566147,149.922501 83.944031,150.359863 
	C83.256989,152.475571 82.628975,154.236908 81.731522,156.228165 
	C81.641495,157.971878 81.820900,159.485641 82.250786,160.999832 
	C82.668259,161.000854 82.835251,161.001465 82.952179,161.401184 
	C81.974480,166.808197 81.046844,171.816101 80.049438,176.916641 
	C79.979675,177.009277 79.867859,177.212479 79.479630,177.221512 
	C75.720711,176.170273 72.350029,175.110001 68.979347,174.049744 
	C68.979347,174.049744 68.982307,173.992508 68.754471,173.747650 
	C66.681923,172.712189 64.837212,171.921570 62.992493,171.130951 
	C62.992493,171.130951 62.793205,170.843567 62.458244,170.593521 
	C61.752129,170.219315 61.380978,170.095154 61.009823,169.970993 
	C60.415798,169.508911 59.821774,169.046814 59.098976,168.326462 
M58.755798,134.975723 
	C57.829041,135.915405 56.902283,136.855087 55.975525,137.794769 
	C56.417320,138.105896 56.859116,138.417038 57.300915,138.728180 
	C57.826927,137.693405 58.352940,136.658630 58.755798,134.975723 
M58.482998,145.587677 
	C58.482998,145.587677 58.417191,145.477173 58.482998,145.587677 
z"/>
<path fill="#D02B2C" opacity="1.000000" stroke="none" 
	d="
M170.008148,71.000946 
	C170.341614,70.472374 170.675064,69.943802 171.053070,69.090942 
	C180.885574,88.451645 180.849731,108.609001 173.951096,129.076874 
	C173.319122,130.951859 172.415024,132.735123 171.112244,134.864975 
	C169.410004,135.785690 168.232819,136.402405 166.752289,137.041809 
	C166.323105,137.726837 166.197266,138.389191 166.021484,139.406006 
	C162.648819,144.512665 159.326080,149.264862 155.997498,153.660675 
	C155.327255,152.535294 154.662857,151.766296 153.999939,150.665894 
	C153.996353,149.892746 153.991302,149.451004 153.992081,149.004028 
	C153.997910,148.998779 154.003342,148.984070 154.226074,148.881104 
	C154.722946,148.578094 154.913757,148.317108 155.383453,147.929779 
	C157.162872,143.859802 158.932190,139.935959 159.875137,135.822647 
	C160.517731,133.019592 160.004807,129.951645 160.013733,126.600655 
	C160.013168,123.465584 160.007401,120.732002 159.834564,117.753860 
	C159.113907,117.339691 158.560303,117.170067 158.148315,116.671051 
	C160.162918,114.045486 162.703888,112.018608 163.762070,109.393921 
	C165.640106,104.735802 166.694763,99.733887 167.910416,94.830322 
	C168.160187,93.822792 167.604843,92.615677 167.420609,91.500565 
	C167.168839,91.527290 166.917068,91.554008 166.665298,91.580734 
	C165.596848,95.240242 164.528397,98.899742 163.333405,102.992661 
	C161.478455,101.529053 162.738068,97.309776 158.999084,99.000458 
	C159.000000,99.000000 158.999329,99.001831 159.045929,98.612793 
	C159.395523,96.149055 159.698547,94.074364 160.001556,91.999672 
	C160.001556,91.999672 160.000000,92.000000 160.246338,91.844543 
	C161.427170,92.585098 162.361649,93.481117 163.461746,94.535934 
	C165.663284,86.621178 167.835709,78.811058 170.008148,71.000946 
M169.443466,127.381042 
	C168.646942,128.636032 167.850418,129.891022 167.053909,131.146027 
	C167.650299,131.386581 168.246689,131.627136 168.843094,131.867691 
	C169.232544,130.248062 169.621994,128.628448 170.283447,126.893494 
	C170.185959,126.925148 170.088486,126.956802 169.443466,127.381042 
M169.925186,87.353050 
	C169.579453,86.765274 169.233704,86.177498 168.887970,85.589722 
	C168.619858,86.095207 168.007477,86.867607 168.151596,87.053467 
	C168.508301,87.513504 169.211105,87.705170 169.925186,87.353050 
z"/>
<path fill="#CE2729" opacity="1.000000" stroke="none" 
	d="
M137.198547,170.079208 
	C133.694962,171.989716 130.191360,173.900223 126.159363,175.614105 
	C125.102676,175.637268 124.574409,175.857056 124.046143,176.076843 
	C124.046143,176.076843 124.006149,175.998886 123.675980,176.006714 
	C122.562347,175.346069 121.778885,174.677612 120.995239,173.759506 
	C120.995049,173.509857 120.993210,173.010773 121.162430,172.918884 
	C121.218552,172.546997 121.105453,172.267029 120.992165,171.560608 
	C121.330116,168.421768 121.668266,165.709366 122.413269,162.998520 
	C129.255096,163.930054 128.341476,158.316711 130.007416,154.629272 
	C130.353500,153.203690 130.663818,152.117264 130.983704,150.651459 
	C130.995331,149.513977 130.997360,148.755875 131.007370,147.593231 
	C134.155106,135.584839 135.181244,123.352180 140.523621,113.013840 
	C143.873734,113.013840 146.438293,113.013840 149.001602,113.345886 
	C148.998611,114.120811 148.996872,114.563690 148.620041,115.081818 
	C147.830185,117.104568 147.415390,119.052071 147.000305,120.999786 
	C147.000000,121.000000 147.000000,121.000610 146.666870,120.999954 
	C145.889572,120.999130 145.445389,120.998955 145.001129,120.603561 
	C144.838470,118.955116 144.675903,117.701874 144.513336,116.448631 
	C143.900055,116.675713 143.286789,116.902786 142.673508,117.129868 
	C143.448593,118.420242 144.223694,119.710625 144.954681,121.367935 
	C144.549728,124.284676 138.630890,124.252022 141.872818,128.615067 
	C142.702576,127.863838 143.485764,127.154785 143.998779,126.690338 
	C143.998779,130.199234 143.998779,133.600571 143.998932,137.334717 
	C143.999390,138.111282 143.999695,138.555038 143.601135,139.012329 
	C142.617279,139.269943 141.608521,139.401321 141.509277,139.774521 
	C139.067200,148.958939 136.654953,158.153519 134.502151,167.407867 
	C134.351791,168.054245 136.251938,169.177643 137.198547,170.079208 
M126.238487,165.369904 
	C125.560638,165.915070 124.882790,166.460251 124.204941,167.005417 
	C124.732933,167.530060 125.260933,168.054703 125.788925,168.579346 
	C126.097572,167.680847 126.406219,166.782333 126.238487,165.369904 
M129.703888,172.565109 
	C129.990128,172.292313 130.276382,172.019516 130.562637,171.746719 
	C130.449310,171.628647 130.244003,171.401428 130.235916,171.408234 
	C129.934097,171.662582 129.650497,171.938538 129.703888,172.565109 
z"/>
<path fill="#D42A2B" opacity="1.000000" stroke="none" 
	d="
M137.503723,170.122818 
	C136.251938,169.177643 134.351791,168.054245 134.502151,167.407867 
	C136.654953,158.153519 139.067200,148.958939 141.509277,139.774521 
	C141.608521,139.401321 142.617279,139.269943 143.920258,138.972321 
	C145.350327,138.595139 146.062408,138.271530 146.999390,137.845734 
	C146.999390,140.374832 146.999390,142.687408 146.793671,145.122360 
	C146.603180,145.594574 146.618408,145.944412 146.633667,146.294266 
	C146.755783,145.863052 146.877899,145.431839 147.333649,145.000305 
	C148.112183,145.000824 148.557083,145.001633 149.002869,145.447250 
	C149.002502,148.267075 149.001251,150.642075 149.000885,153.259460 
	C149.001755,153.501831 149.002441,153.986572 148.668701,153.990601 
	C147.890045,154.001236 147.445129,154.007843 146.998260,153.623810 
	C146.835617,151.954132 146.674911,150.675064 146.514221,149.396011 
	C145.919556,149.360840 145.324905,149.325668 144.730240,149.290497 
	C143.818176,153.525467 142.906113,157.760452 141.855789,162.051056 
	C141.813263,162.073166 141.909012,162.039642 142.361099,161.944122 
	C144.144363,159.588913 145.571274,157.295685 146.998672,155.334671 
	C146.999847,156.109848 147.000534,156.552780 147.000900,157.245590 
	C147.000580,157.495453 146.999924,157.995178 146.859924,158.318237 
	C146.493607,159.772461 146.267288,160.903641 146.025330,162.020111 
	C146.009659,162.005402 146.033707,162.031311 145.858093,162.109009 
	C145.800385,162.460587 145.918304,162.734467 145.877579,163.316040 
	C143.460602,165.724869 141.202255,167.825989 138.943924,169.927124 
	C138.565582,170.006897 138.187225,170.086655 137.503723,170.122818 
z"/>
<path fill="#AE3535" opacity="1.000000" stroke="none" 
	d="
M139.292694,169.882980 
	C141.202255,167.825989 143.460602,165.724869 145.880188,163.071686 
	C146.041458,162.519638 146.033707,162.031311 146.033707,162.031311 
	C146.033707,162.031311 146.009659,162.005402 146.361053,162.019409 
	C147.481796,161.689987 148.251160,161.346573 149.292160,160.809158 
	C151.710312,158.415802 153.856842,156.216431 156.003357,154.017075 
	C159.326080,149.264862 162.648819,144.512665 166.253845,139.223038 
	C166.709305,138.130112 166.882462,137.574631 167.055634,137.019135 
	C168.232819,136.402405 169.410004,135.785690 170.849747,135.095078 
	C164.677551,150.292740 153.734787,161.489655 139.292694,169.882980 
z"/>
<path fill="#F9F6F3" opacity="1.000000" stroke="none" 
	d="
M22.693710,95.994324 
	C23.679638,103.730843 24.306082,111.462303 24.895651,119.610367 
	C22.839266,120.228409 20.819757,120.429832 18.805279,120.630760 
	C17.717312,116.128410 17.717312,116.128410 23.960022,116.569733 
	C21.626884,114.263680 20.174952,112.828606 18.734943,111.405319 
	C19.073088,106.591164 19.448458,101.247002 19.842827,95.632385 
	C19.887625,95.638802 21.110926,95.814026 22.693710,95.994324 
z"/>
<path fill="#D03B34" opacity="1.000000" stroke="none" 
	d="
M102.019646,26.977423 
	C98.586960,27.188818 95.150642,27.582222 91.723526,27.513941 
	C90.506447,27.489695 89.311729,26.342768 88.047943,25.354126 
	C97.378723,24.989014 106.768356,24.978121 116.220787,25.351048 
	C111.528931,26.149050 106.774292,26.563236 102.019646,26.977423 
z"/>
<path fill="#F8F7F4" opacity="1.000000" stroke="none" 
	d="
M68.993622,174.427246 
	C72.350029,175.110001 75.720711,176.170273 79.765594,177.450623 
	C82.627205,178.079071 84.814606,178.487442 87.002007,178.895813 
	C89.070137,179.268616 91.138268,179.641418 93.592438,180.090317 
	C91.967545,180.270782 89.949707,180.306885 87.948662,180.509155 
	C86.990822,180.605988 86.064812,181.017700 85.062195,181.643402 
	C85.000000,182.000000 85.000587,181.999313 85.000587,181.999313 
	C79.669685,179.601135 74.338783,177.202957 68.993622,174.427246 
z"/>
<path fill="#F8F7F4" opacity="1.000000" stroke="none" 
	d="
M96.901688,180.525848 
	C100.408867,180.119720 103.825607,180.077179 107.629562,180.089661 
	C107.328270,181.415146 106.703224,183.740662 105.941063,183.786514 
	C100.612396,184.107010 95.255379,183.956085 89.799706,182.886765 
	C92.136887,182.220978 94.474075,181.555191 96.901688,180.525848 
z"/>
<path fill="#F5F5F2" opacity="1.000000" stroke="none" 
	d="
M48.906464,42.068813 
	C47.165863,44.539120 45.020542,46.939930 42.522530,49.397461 
	C42.115978,48.631413 42.077473,47.807297 42.005825,46.986076 
	C41.434856,40.441715 41.985626,40.017452 48.906464,42.068813 
z"/>
<path fill="#DA3C38" opacity="1.000000" stroke="none" 
	d="
M102.457077,26.983650 
	C106.774292,26.563236 111.528931,26.149050 116.608551,25.492914 
	C118.784088,25.667942 120.634651,26.084921 122.749992,26.731331 
	C120.079071,27.173246 117.128067,27.269953 114.215164,27.654936 
	C113.042381,27.809935 111.953117,28.596790 111.125259,28.307520 
	C108.381676,27.868305 105.638092,27.429090 102.457077,26.983650 
z"/>
<path fill="#F9F6F3" opacity="1.000000" stroke="none" 
	d="
M24.481745,84.994438 
	C24.453630,87.957863 24.045277,90.925262 23.391453,94.235458 
	C21.735336,92.234589 20.324690,89.890923 18.663914,87.131691 
	C19.614080,86.758919 21.857792,85.878670 24.481745,84.994438 
z"/>
<path fill="#F9F6F3" opacity="1.000000" stroke="none" 
	d="
M28.054340,73.161949 
	C27.450451,76.589104 26.446421,80.011467 25.229212,83.730881 
	C25.895422,80.404343 26.774811,76.780746 28.054340,73.161949 
z"/>
<path fill="#F8F7F4" opacity="1.000000" stroke="none" 
	d="
M117.049896,179.032745 
	C116.801865,178.906250 116.976448,178.512909 117.440933,178.333237 
	C119.609703,177.838043 121.313980,177.522507 123.018257,177.206985 
	C123.526054,178.277359 124.033859,179.347733 124.757774,180.873627 
	C122.449966,180.536392 120.612732,180.267929 118.387749,179.999725 
	C118.000000,180.000000 118.000916,180.000610 118.000916,180.000610 
	C117.766586,179.720154 117.532257,179.439713 117.049896,179.032745 
z"/>
<path fill="#C62325" opacity="1.000000" stroke="none" 
	d="
M123.249123,177.071136 
	C121.313980,177.522507 119.609703,177.838043 117.526405,178.135773 
	C116.852448,177.901581 116.557518,177.685196 116.495956,177.221481 
	C118.151367,175.985825 119.573395,174.997482 120.995422,174.009155 
	C121.778885,174.677612 122.562347,175.346069 123.704033,176.040588 
	C123.868164,176.356216 123.674072,176.645752 123.249123,177.071136 
z"/>
<path fill="#F5E9E5" opacity="1.000000" stroke="none" 
	d="
M28.222980,132.003342 
	C29.273838,133.371048 29.994011,134.880325 30.726347,136.710266 
	C28.586763,136.103043 26.060232,135.393478 28.222980,132.003342 
z"/>
<path fill="#F8F7F4" opacity="1.000000" stroke="none" 
	d="
M62.997879,171.484192 
	C64.837212,171.921570 66.681923,172.712189 68.732803,173.766418 
	C66.525452,174.476669 63.747036,175.911133 62.997879,171.484192 
z"/>
<path fill="#D02729" opacity="1.000000" stroke="none" 
	d="
M48.008709,159.447418 
	C48.843880,157.789520 49.748760,156.433304 50.653637,155.077087 
	C51.011574,155.279053 51.369507,155.481033 51.727440,155.682999 
	C51.146511,157.322769 50.565578,158.962524 49.929680,160.973190 
	C49.275948,160.812439 48.677185,160.280762 48.008709,159.447418 
z"/>
<path fill="#D03B34" opacity="1.000000" stroke="none" 
	d="
M85.649445,25.124397 
	C84.107475,25.853489 82.201889,26.546125 80.103348,26.980030 
	C81.702202,26.176846 83.494003,25.632395 85.649445,25.124397 
z"/>
<path fill="#F8F7F4" opacity="1.000000" stroke="none" 
	d="
M117.186417,182.437317 
	C116.264427,183.170761 115.078522,183.674545 113.892616,184.178345 
	C113.761848,183.636536 113.631088,183.094727 113.500320,182.552917 
	C114.641045,182.437836 115.781769,182.322754 117.186417,182.437317 
z"/>
<path fill="#F9F6F3" opacity="1.000000" stroke="none" 
	d="
M30.752832,67.066315 
	C30.665648,68.252052 30.216534,69.460144 29.525234,70.884354 
	C26.969147,69.022247 28.230106,67.931213 30.752832,67.066315 
z"/>
<path fill="#F8F7F4" opacity="1.000000" stroke="none" 
	d="
M110.190971,180.231888 
	C111.093002,179.681915 112.206581,179.397354 113.667770,179.155090 
	C112.811089,179.630707 111.606804,180.063995 110.190971,180.231888 
z"/>
<path fill="#F5E9E5" opacity="1.000000" stroke="none" 
	d="
M26.577995,127.263176 
	C27.226585,128.099533 27.650242,129.189270 28.062920,130.631714 
	C27.485647,129.828476 26.919353,128.672501 26.577995,127.263176 
z"/>
<path fill="#D02729" opacity="1.000000" stroke="none" 
	d="
M53.192596,164.137268 
	C53.138100,163.586823 53.321846,163.353104 53.791519,163.090134 
	C54.000027,163.000000 54.006790,163.005203 54.006790,163.005203 
	C54.266006,163.568192 54.525227,164.131195 54.839329,164.998703 
	C54.380615,164.999863 53.867016,164.696503 53.192596,164.137268 
z"/>
<path fill="#F8F7F4" opacity="1.000000" stroke="none" 
	d="
M84.999542,182.000381 
	C85.430748,182.122681 85.862404,182.244598 86.294060,182.366501 
	C85.944168,182.381577 85.594276,182.396652 85.122482,182.205521 
	C85.000587,181.999313 85.000000,182.000000 84.999542,182.000381 
z"/>
<path fill="#C62325" opacity="1.000000" stroke="none" 
	d="
M124.372421,176.059814 
	C124.574409,175.857056 125.102676,175.637268 125.796906,175.617355 
	C125.541481,175.892426 125.120087,175.967621 124.372421,176.059814 
z"/>
<path fill="#F8F7F4" opacity="1.000000" stroke="none" 
	d="
M117.999649,179.999588 
	C117.907860,180.035477 117.816406,180.071762 117.862938,180.054337 
	C118.000916,180.000610 118.000000,180.000000 117.999649,179.999588 
z"/>
<path fill="#F8F7F4" opacity="1.000000" stroke="none" 
	d="
M61.171997,170.222931 
	C61.380978,170.095154 61.752129,170.219315 62.283447,170.598236 
	C62.073795,170.726929 61.703987,170.600891 61.171997,170.222931 
z"/>
<path fill="#CB2225" opacity="1.000000" stroke="none" 
	d="
M42.782288,154.395386 
	C43.016792,154.334091 43.361015,154.569733 43.797470,155.114258 
	C43.557137,155.179535 43.224571,154.935928 42.782288,154.395386 
z"/>
<path fill="#FCFAF9" opacity="1.000000" stroke="none" 
	d="
M102.852455,69.027000 
	C102.499969,70.714859 102.147491,72.402718 101.663391,74.720650 
	C100.689285,76.824135 99.846802,78.297554 99.004814,79.413902 
	C99.168213,77.648216 99.331116,76.239609 99.476517,74.982254 
	C97.227829,76.336143 95.059479,78.715309 92.800362,78.804848 
	C85.386604,79.098717 77.940521,78.470421 70.505318,78.419098 
	C69.006866,78.408745 67.501686,79.374573 65.801628,80.054321 
	C65.383141,80.480064 65.162636,80.741821 64.582077,81.006622 
	C63.286346,81.690468 62.350670,82.371262 61.414997,83.052063 
	C62.258022,83.369324 63.101048,83.686577 63.961834,84.371582 
	C63.592094,86.156311 63.204590,87.573303 62.442497,88.979187 
	C60.948120,87.511513 59.828335,86.054939 58.708546,84.598366 
	C58.385624,84.683899 58.062698,84.769432 57.739777,84.854965 
	C58.592892,88.016838 59.446007,91.178711 60.320702,94.420578 
	C56.260033,97.333832 55.564884,102.409470 58.894852,107.390015 
	C60.158638,108.665977 61.321571,109.528053 62.485527,110.364563 
	C62.486546,110.338989 62.485916,110.388824 62.878014,110.475647 
	C63.537815,110.566139 63.805523,110.569809 64.377808,110.752083 
	C65.849190,110.812279 67.015991,110.693878 68.541794,110.606384 
	C69.599075,110.512878 70.297363,110.388451 71.436516,110.409195 
	C76.196396,110.579414 80.515411,110.604469 85.267700,110.774506 
	C88.385498,111.023483 91.070015,111.127495 93.786591,111.574783 
	C94.240364,112.949341 94.662071,113.980614 94.911270,115.303558 
	C93.502975,117.388840 92.267197,119.182442 91.000710,121.382782 
	C88.649757,122.589729 86.329506,123.389946 83.675095,124.111961 
	C82.888695,124.082245 82.436447,124.130730 81.527740,124.070587 
	C77.290184,123.950439 73.505875,123.835098 69.728775,123.952354 
	C64.416695,124.117294 59.109974,124.454819 53.800961,124.718536 
	C44.015556,120.913620 42.309345,117.055824 45.159126,104.067314 
	C47.325634,95.240387 49.336426,87.173157 51.705719,79.143066 
	C52.685070,78.913292 53.797707,78.722023 53.852165,78.367989 
	C54.544300,73.868385 56.287708,70.697701 61.505688,70.242432 
	C62.776833,70.131516 63.872391,68.008110 65.478447,66.691345 
	C76.255501,66.656876 86.602791,66.741089 96.983246,67.112457 
	C98.961761,67.942070 100.907104,68.484535 102.852455,69.027000 
M55.200821,88.604553 
	C55.205059,88.212685 55.209293,87.820824 55.213528,87.428963 
	C55.050915,87.427406 54.746971,87.414925 54.746124,87.425865 
	C54.715992,87.815811 54.714218,88.207954 55.200821,88.604553 
M56.079853,79.521591 
	C56.224052,79.764130 56.368256,80.006676 56.512451,80.249214 
	C56.645786,79.999168 56.939034,79.686020 56.871624,79.515190 
	C56.789024,79.305878 56.404575,79.215675 56.079853,79.521591 
M69.174553,75.754410 
	C69.119408,75.588097 69.064262,75.421783 69.009109,75.255470 
	C68.955376,75.422752 68.901634,75.590034 69.174553,75.754410 
z"/>
<path fill="#FAF4F3" opacity="1.000000" stroke="none" 
	d="
M114.967064,148.182434 
	C111.969795,148.119705 108.972527,148.056976 105.511429,147.581665 
	C105.843597,142.725311 106.639603,138.281555 107.435600,133.837784 
	C107.435600,133.837784 107.380424,133.561111 107.615662,133.338760 
	C109.331268,127.756653 110.811646,122.396889 112.292023,117.037125 
	C112.491600,116.597031 112.691185,116.156944 113.023438,114.976265 
	C113.817268,111.142487 114.478424,108.049301 115.358353,104.768951 
	C114.726913,104.353752 113.876724,104.125702 112.607796,103.873169 
	C110.795624,103.909271 109.402184,103.969849 108.008743,104.030418 
	C107.842224,103.966141 107.675705,103.901855 107.150055,103.629997 
	C106.509789,103.514709 106.228653,103.606987 105.947510,103.699272 
	C105.947517,103.699280 105.883141,103.881111 105.706100,103.905388 
	C105.529068,103.929665 105.072334,104.060265 105.072334,104.060265 
	C104.891716,103.994965 104.711090,103.929657 104.138031,103.638474 
	C103.482628,103.571823 103.219658,103.731064 102.956688,103.890297 
	C102.956688,103.890297 102.981590,103.965836 102.727417,103.957733 
	C102.473244,103.949623 102.043358,103.981369 101.770485,103.938110 
	C101.322777,103.836899 101.147949,103.778931 100.760834,103.513901 
	C99.674767,102.197365 98.800995,101.087914 98.048134,99.625031 
	C98.349907,98.810585 98.530777,98.349571 98.816895,97.759560 
	C99.028328,97.422134 99.050514,97.205116 98.988602,96.600555 
	C100.029541,94.168182 101.070564,92.114777 102.411140,90.143005 
	C103.112869,90.154739 103.515038,90.084831 104.382736,90.127197 
	C120.199654,90.312469 135.551056,90.385475 150.902451,90.458488 
	C150.586014,92.714867 150.269562,94.971252 149.961105,97.907127 
	C149.599579,99.276764 149.230057,99.966911 148.626984,100.957794 
	C147.427826,102.181213 146.524490,103.810944 145.485718,103.902397 
	C141.310776,104.269966 137.058990,104.511795 132.905685,104.097534 
	C130.417633,103.849373 129.216492,103.936157 128.822617,106.658409 
	C128.240936,110.678658 127.525497,114.694420 126.583420,118.644455 
	C124.822182,126.029129 123.127846,133.450974 120.838081,140.677505 
	C119.974709,143.402313 120.406708,147.512436 115.780197,148.132782 
	C115.332001,148.083237 115.149536,148.132843 114.967064,148.182434 
z"/>
<path fill="#A12122" opacity="1.000000" stroke="none" 
	d="
M103.917213,90.014931 
	C103.515038,90.084831 103.112869,90.154739 102.146217,89.859924 
	C100.049942,89.335060 98.518135,89.174919 96.682037,89.031738 
	C94.587173,89.043556 92.796623,89.038406 90.613548,89.022263 
	C87.488609,88.998466 84.756195,88.985672 82.019203,88.640625 
	C81.973763,87.502113 81.932892,86.695831 81.927559,86.590645 
	C80.047791,86.749107 78.411697,86.654800 76.921600,87.076462 
	C75.360039,87.518341 72.899971,88.180214 72.624283,89.220673 
	C70.821388,96.024879 69.504524,102.957863 67.679733,109.903458 
	C66.244820,110.163269 65.159027,110.368378 64.073227,110.573486 
	C63.805523,110.569809 63.537815,110.566139 63.025841,110.254250 
	C62.645145,109.868713 62.508724,109.791405 62.372299,109.714096 
	C62.409702,109.939438 62.447105,110.164787 62.484509,110.390129 
	C61.321571,109.528053 60.158638,108.665977 58.981369,107.004005 
	C60.250385,100.466179 61.533737,94.728233 62.817089,88.990295 
	C63.204590,87.573303 63.592094,86.156311 64.127327,84.094269 
	C64.497414,82.634010 64.719772,81.818794 64.942123,81.003578 
	C65.162636,80.741821 65.383141,80.480064 66.269058,80.089752 
	C77.624420,79.897781 88.314369,79.834373 99.004318,79.770966 
	C99.846802,78.297554 100.689285,76.824135 101.726654,75.052124 
	C102.174316,75.164940 102.603851,75.957008 102.654640,75.933426 
	C105.987617,74.385727 108.994934,74.715218 111.713005,77.289665 
	C111.833229,77.403542 112.380455,77.066589 113.977951,76.484344 
	C111.675362,81.089462 109.880562,84.679024 107.677231,88.625183 
	C106.151543,89.326172 105.034378,89.670555 103.917213,90.014931 
z"/>
<path fill="#A11F21" opacity="1.000000" stroke="none" 
	d="
M53.946980,125.027763 
	C59.109974,124.454819 64.416695,124.117294 69.728775,123.952354 
	C73.505875,123.835098 77.290184,123.950439 81.207703,124.331573 
	C74.911789,124.701180 68.479462,124.701180 62.047131,124.701180 
	C68.349510,127.632744 84.792992,127.738510 88.084076,125.510368 
	C86.725891,125.070038 85.367577,124.630096 84.009262,124.190155 
	C86.329506,123.389946 88.649757,122.589729 91.291153,121.406891 
	C92.096802,121.129669 92.668533,121.452095 93.049133,121.299088 
	C94.113678,120.871109 95.099182,120.246559 96.115883,119.699577 
	C97.032585,121.423935 98.588364,123.109245 98.696716,124.882980 
	C98.819382,126.890907 97.643700,128.978149 97.032562,131.030899 
	C97.032570,131.030899 97.002876,131.507294 96.622681,131.744934 
	C92.159988,131.669388 88.139801,129.405045 83.946480,131.772354 
	C83.263908,132.157700 81.827538,131.946609 81.139297,131.453400 
	C78.371651,129.470093 76.645485,130.904984 75.000534,132.993393 
	C74.555779,132.991898 74.111031,132.990387 73.169754,132.678314 
	C67.430870,131.263474 62.188492,130.159180 56.946121,129.054901 
	C55.995079,127.815598 55.044037,126.576294 53.946980,125.027763 
z"/>
<path fill="#CB2324" opacity="1.000000" stroke="none" 
	d="
M169.789658,70.735748 
	C167.835709,78.811058 165.663284,86.621178 163.461746,94.535934 
	C162.361649,93.481117 161.427170,92.585098 160.246338,91.845306 
	C160.295822,88.237000 160.591660,84.472466 160.913559,80.376343 
	C162.536102,80.839485 163.533325,81.124130 165.276764,81.621780 
	C164.808487,77.661842 164.405579,74.254623 164.003326,70.089485 
	C164.004074,68.885246 164.004166,68.438934 164.004257,67.992615 
	C164.996628,68.147202 166.077957,68.106972 166.957474,68.508659 
	C167.925476,68.950760 168.707901,69.799164 169.789658,70.735748 
z"/>
<path fill="#C40203" opacity="1.000000" stroke="none" 
	d="
M96.950081,66.825302 
	C86.602791,66.741089 76.255501,66.656876 65.226425,66.535126 
	C63.560097,66.500702 62.575542,66.503807 61.590992,66.506912 
	C61.722557,66.009834 61.854855,65.077278 61.985584,65.077499 
	C75.632401,65.100403 89.279106,65.193176 102.925652,65.302437 
	C102.955070,65.302681 102.982063,65.607506 102.519913,66.073280 
	C100.336441,66.526100 98.643265,66.675697 96.950081,66.825302 
z"/>
<path fill="#C6242A" opacity="1.000000" stroke="none" 
	d="
M51.347214,79.105934 
	C49.336426,87.173157 47.325634,95.240387 45.147243,103.646172 
	C44.986866,101.808357 44.570377,99.526756 45.079906,97.475128 
	C46.677528,91.042244 48.624012,84.695999 50.822231,78.349594 
	C51.158661,78.642410 51.204697,78.883392 51.347214,79.105934 
z"/>
<path fill="#F7F4F1" opacity="1.000000" stroke="none" 
	d="
M51.705719,79.143066 
	C51.204697,78.883392 51.158661,78.642410 51.151257,78.204285 
	C52.970394,73.051048 55.166187,68.360588 61.294312,66.708153 
	C62.575542,66.503807 63.560097,66.500702 64.796661,66.653816 
	C63.872391,68.008110 62.776833,70.131516 61.505688,70.242432 
	C56.287708,70.697701 54.544300,73.868385 53.852165,78.367989 
	C53.797707,78.722023 52.685070,78.913292 51.705719,79.143066 
z"/>
<path fill="#BE080B" opacity="1.000000" stroke="none" 
	d="
M104.382736,90.127197 
	C105.034378,89.670555 106.151543,89.326172 107.642342,88.971481 
	C120.587738,88.976204 133.159637,88.967018 145.731094,89.036476 
	C147.325928,89.045280 148.918503,89.465889 150.707275,90.077103 
	C135.551056,90.385475 120.199654,90.312469 104.382736,90.127197 
z"/>
<path fill="#B32323" opacity="1.000000" stroke="none" 
	d="
M56.959518,129.378448 
	C62.188492,130.159180 67.430870,131.263474 72.836197,132.678345 
	C67.827545,132.509445 62.655949,132.029938 57.222191,131.274521 
	C56.964333,130.566406 56.968628,130.134201 56.959518,129.378448 
z"/>
<path fill="#AE2123" opacity="1.000000" stroke="none" 
	d="
M148.860550,100.657051 
	C149.230057,99.966911 149.599579,99.276764 150.059845,98.295364 
	C150.910797,98.256302 151.670975,98.508499 153.144089,98.876862 
	C155.571121,98.995964 157.285233,98.998901 158.999329,99.001831 
	C158.999329,99.001831 159.000000,99.000000 159.000198,99.410278 
	C158.346054,101.559593 157.691711,103.298622 157.022278,104.671860 
	C156.041550,102.891190 155.075897,101.476295 153.712692,99.478920 
	C152.318665,101.849251 151.557907,103.142792 150.618088,104.740807 
	C149.896210,103.063477 149.378387,101.860260 148.860550,100.657051 
z"/>
<path fill="#CB2324" opacity="1.000000" stroke="none" 
	d="
M159.045929,98.612793 
	C157.285233,98.998901 155.571121,98.995964 153.428711,98.987396 
	C153.518478,96.820267 154.036591,94.658783 154.898285,91.063896 
	C155.757385,93.795052 156.186859,95.160416 156.790573,97.079636 
	C157.811829,95.048950 158.544006,93.593094 159.638870,92.068451 
	C159.698547,94.074364 159.395523,96.149055 159.045929,98.612793 
z"/>
<path fill="#CB2223" opacity="1.000000" stroke="none" 
	d="
M117.891815,37.632359 
	C118.217216,35.274017 118.476021,33.317486 118.734825,31.360950 
	C119.343185,31.468958 119.951546,31.576963 120.559906,31.684971 
	C119.595184,36.282326 118.630455,40.879677 117.665733,45.477032 
	C117.033989,45.310738 116.402245,45.144444 115.770500,44.978149 
	C116.455399,42.663486 117.140305,40.348827 117.891815,37.632359 
z"/>
<path fill="#CB2324" opacity="1.000000" stroke="none" 
	d="
M156.001831,85.997330 
	C156.313644,84.895081 156.625458,83.792831 157.117966,82.001816 
	C158.198898,78.540894 159.099152,75.768730 159.999390,72.996574 
	C160.927017,78.343842 159.579102,83.130821 156.217651,86.986809 
	C156.001221,86.331253 156.001526,86.164291 156.001831,85.997330 
z"/>
<path fill="#CB2122" opacity="1.000000" stroke="none" 
	d="
M50.042904,58.939056 
	C50.909306,55.375530 51.755672,52.205070 52.853893,48.091156 
	C55.200851,53.337250 51.141636,57.174225 50.943115,61.540718 
	C50.636368,60.804523 50.329617,60.068325 50.042904,58.939056 
z"/>
<path fill="#DA2B2F" opacity="1.000000" stroke="none" 
	d="
M159.992950,72.643173 
	C159.099152,75.768730 158.198898,78.540894 157.149323,81.656677 
	C157.219620,78.151642 157.439240,74.302979 157.658875,70.454323 
	C158.184372,70.429298 158.709885,70.404282 159.235397,70.379265 
	C159.485764,71.016098 159.736145,71.652939 159.992950,72.643173 
z"/>
<path fill="#CB2225" opacity="1.000000" stroke="none" 
	d="
M50.938496,135.763580 
	C51.627228,133.139191 52.225040,130.891281 52.822849,128.643356 
	C53.249348,128.754272 53.675842,128.865189 54.102341,128.976105 
	C53.309696,132.519623 52.517052,136.063126 51.724407,139.606644 
	C51.235588,139.516495 50.746769,139.426361 50.257950,139.336227 
	C50.454491,138.270828 50.651031,137.205444 50.938496,135.763580 
z"/>
<path fill="#CB2225" opacity="1.000000" stroke="none" 
	d="
M48.610928,145.731659 
	C49.065525,144.387451 49.375443,143.400208 49.685364,142.412979 
	C50.073704,142.506729 50.462048,142.600479 50.850391,142.694244 
	C50.112865,146.187943 49.375340,149.681641 48.637814,153.175339 
	C48.254135,153.146667 47.870453,153.117996 47.486774,153.089325 
	C47.813263,150.755768 48.139755,148.422195 48.610928,145.731659 
z"/>
<path fill="#FAF7F5" opacity="1.000000" stroke="none" 
	d="
M96.983246,67.112450 
	C98.643265,66.675697 100.336441,66.526100 102.320679,66.325394 
	C102.783554,66.964218 102.955368,67.654152 102.989822,68.685547 
	C100.907104,68.484535 98.961761,67.942070 96.983246,67.112450 
z"/>
<path fill="#CB2225" opacity="1.000000" stroke="none" 
	d="
M48.638306,136.325485 
	C48.212067,137.948380 47.800488,139.239502 47.388908,140.530640 
	C46.896679,140.196777 46.404449,139.862930 45.912216,139.529083 
	C46.825802,138.350632 47.739384,137.172165 48.638306,136.325485 
z"/>
<path fill="#CB2225" opacity="1.000000" stroke="none" 
	d="
M45.584026,145.847961 
	C45.735672,147.243393 45.664833,148.369614 45.593990,149.495819 
	C45.060253,149.377289 44.526516,149.258759 43.992783,149.140213 
	C44.449036,147.953049 44.905285,146.765884 45.584026,145.847961 
z"/>
<path fill="#DA2B2F" opacity="1.000000" stroke="none" 
	d="
M161.352173,65.092819 
	C161.361267,66.147614 161.147873,66.952690 160.934464,67.757759 
	C160.340210,67.390373 159.745941,67.022980 159.151688,66.655586 
	C159.811005,66.051422 160.470337,65.447250 161.352173,65.092819 
z"/>
<path fill="#DA2B2F" opacity="1.000000" stroke="none" 
	d="
M161.987915,62.545376 
	C161.655579,61.889591 161.626266,61.237141 161.596970,60.584694 
	C161.873047,60.588535 162.149109,60.592381 162.425186,60.596222 
	C162.380447,61.247051 162.335693,61.897884 161.987915,62.545376 
z"/>
<path fill="#D02729" opacity="1.000000" stroke="none" 
	d="
M51.987034,151.538818 
	C51.588142,150.954056 51.490334,150.372849 51.392525,149.791656 
	C51.803055,149.796722 52.213577,149.801788 52.624104,149.806839 
	C52.512108,150.385361 52.400112,150.963882 51.987034,151.538818 
z"/>
<path fill="#DA2B2F" opacity="1.000000" stroke="none" 
	d="
M163.777542,68.138962 
	C164.004166,68.438934 164.004074,68.885246 164.002289,69.666229 
	C163.850677,69.429039 163.700760,68.857178 163.777542,68.138962 
z"/>
<path fill="#CB2122" opacity="1.000000" stroke="none" 
	d="
M49.643875,63.741695 
	C49.629055,63.992348 49.495300,64.128906 49.361542,64.265457 
	C49.416012,64.052841 49.470482,63.840221 49.643875,63.741695 
z"/>
<path fill="#D02729" opacity="1.000000" stroke="none" 
	d="
M53.997459,162.996704 
	C54.090076,162.959686 54.185265,162.925949 54.143620,162.948715 
	C54.006790,163.005203 54.000027,163.000000 53.997459,162.996704 
z"/>
<path fill="#DA2B2F" opacity="1.000000" stroke="none" 
	d="
M155.834366,86.086166 
	C156.001526,86.164291 156.001221,86.331253 156.000153,86.748657 
	C155.888565,86.724396 155.777740,86.449699 155.834366,86.086166 
z"/>
<path fill="#CB2225" opacity="1.000000" stroke="none" 
	d="
M49.531929,130.550781 
	C49.475620,130.584763 49.588234,130.516800 49.531929,130.550781 
z"/>
<path fill="#9E2021" opacity="1.000000" stroke="none" 
	d="
M148.626984,100.957794 
	C149.378387,101.860260 149.896210,103.063477 150.618088,104.740807 
	C151.557907,103.142792 152.318665,101.849251 153.712692,99.478920 
	C155.075897,101.476295 156.041550,102.891190 157.012024,105.036926 
	C156.674362,107.176300 156.331848,108.584816 155.593292,110.002319 
	C151.693771,110.404701 148.176758,110.705872 144.690826,111.218399 
	C141.442749,111.695946 138.227737,112.398376 134.997147,112.637100 
	C134.760040,111.331703 134.523972,110.390999 134.287888,109.450302 
	C133.822693,109.684891 133.357498,109.919472 132.892303,110.154060 
	C133.595490,111.102158 134.298660,112.050255 135.003143,113.410370 
	C132.918320,127.857285 130.066681,141.706772 125.017624,155.267990 
	C125.010437,155.510223 124.992676,155.994583 124.658569,155.995300 
	C123.878807,156.001297 123.433136,156.006561 122.701569,156.042511 
	C121.604759,156.056046 120.793846,156.038895 119.927437,155.665314 
	C117.917137,154.539169 115.962349,153.769424 114.007553,152.999680 
	C114.094978,152.671356 114.274879,152.405640 115.030464,151.996796 
	C116.008865,151.527756 116.504051,151.264496 117.199348,151.254852 
	C118.202545,151.602310 119.005615,151.696136 119.808693,151.789978 
	C119.827995,151.526245 119.847290,151.262512 119.866592,150.998779 
	C118.911537,150.998779 117.956490,150.998779 116.983002,150.701614 
	C116.658356,149.680283 116.352142,148.956131 116.045929,148.231964 
	C120.406708,147.512436 119.974709,143.402313 120.838081,140.677505 
	C123.127846,133.450974 124.822182,126.029129 126.583420,118.644455 
	C127.525497,114.694420 128.240936,110.678658 128.822617,106.658409 
	C129.216492,103.936157 130.417633,103.849373 132.905685,104.097534 
	C137.058990,104.511795 141.310776,104.269966 145.485718,103.902397 
	C146.524490,103.810944 147.427826,102.181213 148.626984,100.957794 
M127.475914,136.379486 
	C127.531059,136.163818 127.586197,135.948135 127.641342,135.732468 
	C127.505646,135.871094 127.369949,136.009720 127.475914,136.379486 
M124.758224,135.822479 
	C124.588585,135.878952 124.418938,135.935440 124.249298,135.991913 
	C124.419975,136.046814 124.590645,136.101700 124.758224,135.822479 
M125.588814,132.518204 
	C125.588814,132.518204 125.476471,132.585846 125.588814,132.518204 
z"/>
<path fill="#CA2021" opacity="1.000000" stroke="none" 
	d="
M96.986336,89.014778 
	C98.518135,89.174919 100.049942,89.335060 101.846664,89.778290 
	C101.070564,92.114777 100.029541,94.168182 98.833954,96.711075 
	C98.479767,97.439804 98.490517,97.669136 98.711639,97.888557 
	C98.530777,98.349571 98.349907,98.810585 97.710464,99.795372 
	C96.486359,103.647385 98.022263,104.458084 100.973129,103.720970 
	C101.147949,103.778931 101.322777,103.836899 101.803131,104.178787 
	C102.287849,104.804817 102.563072,104.922646 102.934296,104.816193 
	C101.983597,108.289078 101.032898,111.761963 99.668777,115.617569 
	C97.864822,115.670815 96.474304,115.341347 95.083778,115.011879 
	C94.662071,113.980614 94.240364,112.949341 93.847176,111.246864 
	C93.570427,109.760185 93.265167,108.944717 92.972275,107.775955 
	C92.992508,106.951393 93.000381,106.480110 93.282661,105.761803 
	C94.155861,103.455910 94.950302,101.430489 95.309090,99.330620 
	C95.895561,95.898232 98.893387,92.843658 96.986336,89.014778 
M96.380707,112.121864 
	C97.223206,111.246162 98.065704,110.370453 98.908195,109.494751 
	C98.471016,109.130859 98.033829,108.766968 97.596649,108.403084 
	C97.182045,109.419395 96.767448,110.435715 96.380707,112.121864 
z"/>
<path fill="#C62325" opacity="1.000000" stroke="none" 
	d="
M124.992676,155.994583 
	C124.992676,155.994583 125.010437,155.510223 125.429550,155.260376 
	C127.222992,154.996490 128.597321,154.982452 129.971649,154.968414 
	C128.341476,158.316711 129.255096,163.930054 122.411674,162.651749 
	C121.961235,161.516312 121.919250,160.729202 121.797379,158.444412 
	C119.883965,164.252655 118.442719,168.627625 117.001472,173.002594 
	C116.834717,173.001968 116.667953,173.001358 116.251854,172.593475 
	C116.707054,168.401657 117.411591,164.617065 118.116135,160.832489 
	C117.637428,160.764801 117.158714,160.697113 116.680008,160.629425 
	C116.120598,162.420868 115.561188,164.212296 115.001770,166.003723 
	C114.366333,163.261520 113.730888,160.519302 113.306717,157.213593 
	C115.672974,156.440643 117.827957,156.231186 119.982941,156.021729 
	C120.793846,156.038895 121.604759,156.056046 122.743301,156.339996 
	C123.481499,156.921753 123.892052,157.236725 124.302612,157.551712 
	C124.532631,157.032669 124.762650,156.513626 124.992676,155.994583 
z"/>
<path fill="#D62E2F" opacity="1.000000" stroke="none" 
	d="
M87.055527,178.507965 
	C84.814606,178.487442 82.627205,178.079071 80.153824,177.441589 
	C79.867859,177.212479 79.979675,177.009277 80.403976,176.898163 
	C82.554314,170.191650 84.280342,163.596268 86.006363,157.000885 
	C87.297340,159.584991 89.673401,162.183640 89.639046,164.750000 
	C89.579262,169.217194 88.032471,173.664490 87.055527,178.507965 
z"/>
<path fill="#C22322" opacity="1.000000" stroke="none" 
	d="
M94.911270,115.303558 
	C96.474304,115.341347 97.864822,115.670815 99.621269,116.001587 
	C100.971725,117.398842 101.956268,118.794792 103.463821,120.932312 
	C102.389160,124.729652 101.013901,129.589172 99.297218,135.655121 
	C98.424423,133.565811 97.987740,132.520477 97.291809,131.253021 
	C97.643700,128.978149 98.819382,126.890907 98.696716,124.882980 
	C98.588364,123.109245 97.032585,121.423935 96.115883,119.699577 
	C95.099182,120.246559 94.113678,120.871109 93.049133,121.299088 
	C92.668533,121.452095 92.096802,121.129669 91.321861,121.000153 
	C92.267197,119.182442 93.502975,117.388840 94.911270,115.303558 
z"/>
<path fill="#A91C1C" opacity="1.000000" stroke="none" 
	d="
M115.139587,104.956116 
	C114.478424,108.049301 113.817268,111.142487 113.008415,114.607544 
	C111.256508,113.975815 109.652298,112.972221 107.034721,111.334663 
	C107.244629,109.871033 107.605568,107.354286 107.987625,104.433983 
	C109.402184,103.969849 110.795624,103.909271 112.708778,104.188698 
	C113.865524,104.671173 114.502563,104.813644 115.139587,104.956116 
z"/>
<path fill="#B32323" opacity="1.000000" stroke="none" 
	d="
M75.195892,133.244354 
	C76.645485,130.904984 78.371651,129.470093 81.139297,131.453400 
	C81.827538,131.946609 83.263908,132.157700 83.946480,131.772354 
	C88.139801,129.405045 92.159988,131.669388 96.608223,131.983170 
	C96.221336,132.834854 95.540474,134.314636 94.701637,134.410370 
	C92.764656,134.631439 90.751076,134.181335 88.011353,134.006409 
	C86.167747,134.665939 85.081360,135.322510 83.994980,135.979095 
	C81.127068,135.151169 78.259163,134.323242 75.195892,133.244354 
z"/>
<path fill="#D52C2D" opacity="1.000000" stroke="none" 
	d="
M82.000961,155.998230 
	C82.628975,154.236908 83.256989,152.475571 83.987106,149.977844 
	C85.395401,144.829041 86.701599,140.416656 88.007790,136.004272 
	C88.329704,136.104462 88.589493,136.291092 88.883835,137.190582 
	C87.983955,142.877762 86.987396,147.938583 85.990829,152.999390 
	C85.659462,154.087357 85.328094,155.175339 84.735886,156.840775 
	C83.984108,158.612854 83.493172,159.807465 83.002235,161.002075 
	C82.835251,161.001465 82.668259,161.000854 82.251144,160.583130 
	C82.001007,158.776749 82.000984,157.387497 82.000961,155.998230 
z"/>
<path fill="#CA2222" opacity="1.000000" stroke="none" 
	d="
M88.005569,135.673416 
	C86.701599,140.416656 85.395401,144.829041 84.046127,149.623459 
	C82.566147,149.922501 81.129242,149.839523 78.332298,149.677994 
	C84.753090,146.443588 84.907127,141.773682 84.003098,136.364273 
	C85.081360,135.322510 86.167747,134.665939 87.629768,134.014709 
	C88.004723,134.460907 88.004036,134.901733 88.005569,135.673416 
z"/>
<path fill="#CB2322" opacity="1.000000" stroke="none" 
	d="
M82.952179,161.401184 
	C83.493172,159.807465 83.984108,158.612854 84.735153,157.205826 
	C85.163750,156.994995 85.332237,156.996582 85.753540,156.999512 
	C84.280342,163.596268 82.554314,170.191650 80.473747,176.805511 
	C81.046844,171.816101 81.974480,166.808197 82.952179,161.401184 
z"/>
<path fill="#C52126" opacity="1.000000" stroke="none" 
	d="
M111.992043,117.120201 
	C110.811646,122.396889 109.331268,127.756653 107.490906,133.272919 
	C106.259018,132.234802 105.387115,131.040192 104.515213,129.845566 
	C104.939041,129.886261 105.362877,129.926941 105.786705,129.967636 
	C106.175415,127.855469 106.564125,125.743301 106.976448,123.315536 
	C107.000069,122.999939 107.004814,122.995049 107.004814,122.995049 
	C108.567230,121.064461 110.129646,119.133865 111.992043,117.120201 
z"/>
<path fill="#C81E22" opacity="1.000000" stroke="none" 
	d="
M107.024612,133.927002 
	C106.639603,138.281555 105.843597,142.725311 105.062866,147.563782 
	C104.440063,149.151566 103.801994,150.344666 102.847023,152.130325 
	C102.431572,151.002930 101.955223,150.389648 102.078339,149.940796 
	C103.538315,144.618408 105.087715,139.320541 107.024612,133.927002 
z"/>
<path fill="#D82B2F" opacity="1.000000" stroke="none" 
	d="
M116.862930,173.321869 
	C118.442719,168.627625 119.883965,164.252655 121.797379,158.444412 
	C121.919250,160.729202 121.961235,161.516312 122.004822,162.650208 
	C121.668266,165.709366 121.330116,168.421768 120.990196,171.816620 
	C120.990028,172.669647 120.991623,172.840210 120.993210,173.010773 
	C120.993210,173.010773 120.995049,173.509857 120.995239,173.759506 
	C119.573395,174.997482 118.151367,175.985825 116.365730,176.977417 
	C116.242882,175.867523 116.483627,174.754333 116.862930,173.321869 
z"/>
<path fill="#D52B2E" opacity="1.000000" stroke="none" 
	d="
M114.894241,166.221710 
	C115.561188,164.212296 116.120598,162.420868 116.680008,160.629425 
	C117.158714,160.697113 117.637428,160.764801 118.116135,160.832489 
	C117.411591,164.617065 116.707054,168.401657 116.001709,172.592804 
	C115.362480,172.547714 114.724052,172.096024 114.043915,170.923615 
	C114.004204,169.135193 114.006195,168.067459 114.008179,166.999741 
	C114.329292,166.898697 114.588806,166.712021 114.894241,166.221710 
z"/>
<path fill="#CB2322" opacity="1.000000" stroke="none" 
	d="
M86.325912,153.000549 
	C86.987396,147.938583 87.983955,142.877762 88.990921,137.409058 
	C89.333984,139.379471 89.666649,141.757767 89.718384,144.804031 
	C88.958649,147.981735 88.479843,150.491486 88.001038,153.001221 
	C87.554359,153.001373 87.107674,153.001526 86.325912,153.000549 
z"/>
<path fill="#AD2222" opacity="1.000000" stroke="none" 
	d="
M119.927437,155.665314 
	C117.827957,156.231186 115.672974,156.440643 113.262161,156.818268 
	C113.155426,155.808487 113.304535,154.630569 113.730591,153.226166 
	C115.962349,153.769424 117.917137,154.539169 119.927437,155.665314 
z"/>
<path fill="#CC2424" opacity="1.000000" stroke="none" 
	d="
M110.073845,163.528427 
	C110.719261,162.496140 111.317070,161.847351 111.914879,161.198547 
	C112.204575,161.316467 112.494270,161.434387 112.783966,161.552307 
	C112.408630,163.813400 112.033287,166.074493 111.657951,168.335602 
	C111.274498,168.383530 110.891045,168.431458 110.507591,168.479385 
	C110.347137,166.956894 110.186684,165.434402 110.073845,163.528427 
z"/>
<path fill="#D62E2F" opacity="1.000000" stroke="none" 
	d="
M88.039520,153.281952 
	C88.479843,150.491486 88.958649,147.981735 89.718201,145.233429 
	C89.651253,147.873459 89.305565,150.752274 88.949089,153.629776 
	C88.933510,153.755493 88.818909,153.868942 88.750443,153.988113 
	C88.526291,153.846313 88.302147,153.704498 88.039520,153.281952 
z"/>
<path fill="#AD2222" opacity="1.000000" stroke="none" 
	d="
M115.780197,148.132782 
	C116.352142,148.956131 116.658356,149.680283 116.982285,150.702225 
	C117.000000,151.000000 116.999229,151.001221 116.999229,151.001221 
	C116.504051,151.264496 116.008865,151.527756 115.251129,151.891846 
	C114.987137,150.976547 114.985703,149.960449 114.975662,148.563385 
	C115.149536,148.132843 115.332001,148.083237 115.780197,148.132782 
z"/>
<path fill="#C62325" opacity="1.000000" stroke="none" 
	d="
M113.744926,167.208710 
	C114.006195,168.067459 114.004204,169.135193 114.002068,170.603455 
	C113.828499,169.808563 113.655083,168.613129 113.744926,167.208710 
z"/>
<path fill="#D52B2E" opacity="1.000000" stroke="none" 
	d="
M113.692535,175.918762 
	C113.724556,176.470840 113.596611,176.862366 113.468666,177.253906 
	C113.361801,177.146942 113.148384,177.016266 113.166023,176.937042 
	C113.255142,176.536728 113.404396,176.149811 113.692535,175.918762 
z"/>
<path fill="#A91C1C" opacity="1.000000" stroke="none" 
	d="
M105.067482,104.308197 
	C105.072334,104.060265 105.529068,103.929665 105.759560,103.985672 
	C105.837151,104.472420 105.684258,104.903168 105.531357,105.333916 
	C105.375107,105.074654 105.218872,104.815384 105.067482,104.308197 
z"/>
<path fill="#C52126" opacity="1.000000" stroke="none" 
	d="
M106.997795,123.001526 
	C106.748192,122.654160 106.498878,122.306473 106.269417,121.946152 
	C106.265327,121.939713 106.499161,121.781754 106.621964,121.694489 
	C106.739265,121.968590 106.856567,122.242699 106.989342,122.755920 
	C107.004814,122.995049 107.000069,122.999939 106.997795,123.001526 
z"/>
<path fill="#F3DCDA" opacity="1.000000" stroke="none" 
	d="
M103.220673,103.879807 
	C103.219658,103.731064 103.482628,103.571823 103.863525,103.550995 
	C103.815849,103.749382 103.650246,103.809349 103.220673,103.879807 
z"/>
<path fill="#F3DCDA" opacity="1.000000" stroke="none" 
	d="
M106.209137,103.767303 
	C106.228653,103.606987 106.509789,103.514709 106.891937,103.558838 
	C106.818886,103.741943 106.644829,103.788635 106.209137,103.767303 
z"/>
<path fill="#F3DCDA" opacity="1.000000" stroke="none" 
	d="
M102.946304,104.598862 
	C102.563072,104.922646 102.287849,104.804817 102.076004,104.222038 
	C102.043358,103.981369 102.473244,103.949623 102.688477,103.949646 
	C102.903717,103.949661 102.958305,104.381538 102.946304,104.598862 
z"/>
<path fill="#D1292A" opacity="1.000000" stroke="none" 
	d="
M58.998795,153.001953 
	C58.155563,154.686874 57.313545,156.369843 56.471523,158.052811 
	C56.248154,157.997910 56.024780,157.943008 55.801411,157.888107 
	C56.305027,154.785751 56.808643,151.683380 57.312260,148.581024 
	C57.703625,148.543076 58.094990,148.505127 58.486355,148.467178 
	C58.657642,149.712448 58.828930,150.957703 59.001465,152.600189 
	C59.002720,152.997406 59.000000,153.000000 58.998795,153.001953 
z"/>
<path fill="#D1292A" opacity="1.000000" stroke="none" 
	d="
M58.817375,135.299805 
	C58.352940,136.658630 57.826927,137.693405 57.300915,138.728180 
	C56.859116,138.417038 56.417320,138.105896 55.975525,137.794769 
	C56.902283,136.855087 57.829041,135.915405 58.817375,135.299805 
z"/>
<path fill="#CA2222" opacity="1.000000" stroke="none" 
	d="
M81.731522,156.228165 
	C82.000984,157.387497 82.001007,158.776749 82.000671,160.582718 
	C81.820900,159.485641 81.641495,157.971878 81.731522,156.228165 
z"/>
<path fill="#D1292A" opacity="1.000000" stroke="none" 
	d="
M58.450096,145.532425 
	C58.417191,145.477173 58.482998,145.587677 58.450096,145.532425 
z"/>
<path fill="#CB2324" opacity="1.000000" stroke="none" 
	d="
M155.989349,109.993340 
	C156.331848,108.584816 156.674362,107.176300 157.027115,105.402710 
	C157.691711,103.298622 158.346054,101.559593 158.999283,99.410736 
	C162.738068,97.309776 161.478455,101.529053 163.333405,102.992661 
	C164.528397,98.899742 165.596848,95.240242 166.665298,91.580734 
	C166.917068,91.554008 167.168839,91.527290 167.420609,91.500565 
	C167.604843,92.615677 168.160187,93.822792 167.910416,94.830322 
	C166.694763,99.733887 165.640106,104.735802 163.762070,109.393921 
	C162.703888,112.018608 160.162918,114.045486 158.145081,117.086128 
	C156.985001,122.648598 156.153336,127.514534 154.911011,132.273239 
	C153.095276,139.228210 150.984833,146.106262 149.000000,153.017090 
	C149.001251,150.642075 149.002502,148.267075 149.001877,145.446030 
	C149.000000,145.000000 149.002167,145.001007 149.282623,144.763245 
	C151.338333,138.253662 153.394958,132.043549 154.788208,125.688004 
	C155.691696,121.566551 155.626785,117.232803 155.998383,112.619148 
	C155.997116,111.493858 155.993240,110.743599 155.989349,109.993340 
z"/>
<path fill="#D52B2D" opacity="1.000000" stroke="none" 
	d="
M149.000885,153.259460 
	C150.984833,146.106262 153.095276,139.228210 154.911011,132.273239 
	C156.153336,127.514534 156.985001,122.648598 158.003479,117.415520 
	C158.560303,117.170067 159.113907,117.339691 159.826050,118.154785 
	C157.989731,127.533516 155.994873,136.266754 153.862122,145.054352 
	C153.816177,145.072479 153.908081,145.036240 154.371033,144.928055 
	C156.497559,138.904785 158.253052,132.953461 160.008545,127.002136 
	C160.004807,129.951645 160.517731,133.019592 159.875137,135.822647 
	C158.932190,139.935959 157.162872,143.859802 155.232590,147.769409 
	C154.480804,148.110992 154.242081,148.547531 154.003357,148.984070 
	C154.003342,148.984070 153.997910,148.998779 153.763901,149.145493 
	C153.686081,149.860580 153.842270,150.428940 153.998459,150.997314 
	C154.662857,151.766296 155.327255,152.535294 155.997498,153.660675 
	C153.856842,156.216431 151.710312,158.415802 149.033905,160.628357 
	C148.002640,159.759415 147.501282,158.877304 146.999924,157.995178 
	C146.999924,157.995178 147.000580,157.495453 147.346085,157.193863 
	C148.128540,155.923706 148.565491,154.955139 149.002441,153.986572 
	C149.002441,153.986572 149.001755,153.501831 149.000885,153.259460 
z"/>
<path fill="#CA2122" opacity="1.000000" stroke="none" 
	d="
M160.013733,126.600655 
	C158.253052,132.953461 156.497559,138.904785 154.371033,144.928055 
	C155.994873,136.266754 157.989731,127.533516 159.993103,118.399338 
	C160.007401,120.732002 160.013168,123.465584 160.013733,126.600655 
z"/>
<path fill="#D7292E" opacity="1.000000" stroke="none" 
	d="
M170.011459,127.008827 
	C169.621994,128.628448 169.232544,130.248062 168.843094,131.867691 
	C168.246689,131.627136 167.650299,131.386581 167.053909,131.146027 
	C167.850418,129.891022 168.646942,128.636032 169.721741,127.190475 
	C170.000000,126.999916 170.011459,127.008827 170.011459,127.008827 
z"/>
<path fill="#CB2324" opacity="1.000000" stroke="none" 
	d="
M169.850021,87.678864 
	C169.211105,87.705170 168.508301,87.513504 168.151596,87.053467 
	C168.007477,86.867607 168.619858,86.095207 168.887970,85.589722 
	C169.233704,86.177498 169.579453,86.765274 169.850021,87.678864 
z"/>
<path fill="#D7292E" opacity="1.000000" stroke="none" 
	d="
M166.752289,137.041809 
	C166.882462,137.574631 166.709305,138.130112 166.303802,138.868576 
	C166.197266,138.389191 166.323105,137.726837 166.752289,137.041809 
z"/>
<path fill="#CA2122" opacity="1.000000" stroke="none" 
	d="
M154.226074,148.881104 
	C154.242081,148.547531 154.480804,148.110992 154.870392,147.834808 
	C154.913757,148.317108 154.722946,148.578094 154.226074,148.881104 
z"/>
<path fill="#CA2122" opacity="1.000000" stroke="none" 
	d="
M153.999939,150.665894 
	C153.842270,150.428940 153.686081,149.860580 153.758072,149.150726 
	C153.991302,149.451004 153.996353,149.892746 153.999939,150.665894 
z"/>
<path fill="#D7292E" opacity="1.000000" stroke="none" 
	d="
M169.995499,126.994186 
	C170.088486,126.956802 170.185959,126.925148 170.147461,126.951157 
	C170.011459,127.008827 170.000000,126.999916 169.995499,126.994186 
z"/>
<path fill="#AE2123" opacity="1.000000" stroke="none" 
	d="
M155.593292,110.002319 
	C155.993240,110.743599 155.997116,111.493858 155.752533,112.627716 
	C155.504074,113.011307 155.012802,113.039322 154.583618,113.029594 
	C152.437241,113.017860 150.720032,113.015846 149.002838,113.013840 
	C146.438293,113.013840 143.873734,113.013840 140.523621,113.013840 
	C135.181244,123.352180 134.155106,135.584839 130.673920,147.643585 
	C130.546356,149.075928 130.760239,150.053391 130.974121,151.030838 
	C130.663818,152.117264 130.353500,153.203690 130.007416,154.629272 
	C128.597321,154.982452 127.222992,154.996490 125.436737,155.018127 
	C130.066681,141.706772 132.918320,127.857285 135.002228,113.411194 
	C135.000000,113.000000 134.998169,113.001808 134.998169,113.001808 
	C138.227737,112.398376 141.442749,111.695946 144.690826,111.218399 
	C148.176758,110.705872 151.693771,110.404701 155.593292,110.002319 
z"/>
<path fill="#CF2525" opacity="1.000000" stroke="none" 
	d="
M149.001602,113.345886 
	C150.720032,113.015846 152.437241,113.017860 154.570831,113.432327 
	C152.992203,124.230194 150.997192,134.615601 149.002167,145.001007 
	C149.002167,145.001007 149.000000,145.000000 149.000977,145.001221 
	C148.557083,145.001633 148.112183,145.000824 147.333649,145.000000 
	C147.000000,145.000000 146.999390,145.000000 146.999390,145.000000 
	C146.999390,142.687408 146.999390,140.374832 146.999390,137.845734 
	C146.062408,138.271530 145.350327,138.595139 144.319122,138.958771 
	C143.999695,138.555038 143.999390,138.111282 144.006500,136.943665 
	C145.009293,131.146729 146.004654,126.073669 147.000000,121.000610 
	C147.000000,121.000610 147.000000,121.000000 147.273010,120.776100 
	C148.029053,118.703659 148.512085,116.855118 148.995117,115.006569 
	C148.996872,114.563690 148.998611,114.120811 149.001602,113.345886 
z"/>
<path fill="#D42A2B" opacity="1.000000" stroke="none" 
	d="
M146.666870,120.999954 
	C146.004654,126.073669 145.009293,131.146729 144.006348,136.610840 
	C143.998779,133.600571 143.998779,130.199234 143.998779,126.690338 
	C143.485764,127.154785 142.702576,127.863838 141.872818,128.615067 
	C138.630890,124.252022 144.549728,124.284676 144.955292,121.367432 
	C145.000000,121.000000 145.001221,120.998779 145.001221,120.998779 
	C145.445389,120.998955 145.889572,120.999130 146.666870,120.999954 
z"/>
<path fill="#C62325" opacity="1.000000" stroke="none" 
	d="
M126.476677,165.626862 
	C126.406219,166.782333 126.097572,167.680847 125.788925,168.579346 
	C125.260933,168.054703 124.732933,167.530060 124.204941,167.005417 
	C124.882790,166.460251 125.560638,165.915070 126.476677,165.626862 
z"/>
<path fill="#D42A2B" opacity="1.000000" stroke="none" 
	d="
M144.999390,121.000504 
	C144.223694,119.710625 143.448593,118.420242 142.673508,117.129868 
	C143.286789,116.902786 143.900055,116.675713 144.513336,116.448631 
	C144.675903,117.701874 144.838470,118.955116 145.001129,120.603561 
	C145.001221,120.998779 145.000000,121.000000 144.999390,121.000504 
z"/>
<path fill="#D42A2B" opacity="1.000000" stroke="none" 
	d="
M148.620056,115.081818 
	C148.512085,116.855118 148.029053,118.703659 147.273315,120.775887 
	C147.415390,119.052071 147.830185,117.104568 148.620056,115.081818 
z"/>
<path fill="#C62325" opacity="1.000000" stroke="none" 
	d="
M130.983704,150.651459 
	C130.760239,150.053391 130.546356,149.075928 130.665924,148.048126 
	C130.997360,148.755875 130.995331,149.513977 130.983704,150.651459 
z"/>
<path fill="#D42A2B" opacity="1.000000" stroke="none" 
	d="
M129.534149,172.388336 
	C129.650497,171.938538 129.934097,171.662582 130.235916,171.408234 
	C130.244003,171.401428 130.449310,171.628647 130.562637,171.746719 
	C130.276382,172.019516 129.990128,172.292313 129.534149,172.388336 
z"/>
<path fill="#C62325" opacity="1.000000" stroke="none" 
	d="
M121.162430,172.918884 
	C120.991623,172.840210 120.990028,172.669647 120.990395,172.243073 
	C121.105453,172.267029 121.218552,172.546997 121.162430,172.918884 
z"/>
<path fill="#CC2325" opacity="1.000000" stroke="none" 
	d="
M146.998169,155.002441 
	C145.571274,157.295685 144.144363,159.588913 142.358734,161.941071 
	C142.000000,162.000000 141.994049,161.995422 141.994049,161.995422 
	C142.906113,157.760452 143.818176,153.525467 144.730240,149.290497 
	C145.324905,149.325668 145.919556,149.360840 146.514221,149.396011 
	C146.674911,150.675064 146.835617,151.954132 146.997986,153.870728 
	C146.999649,154.508270 146.998169,155.002441 146.998169,155.002441 
z"/>
<path fill="#CB2324" opacity="1.000000" stroke="none" 
	d="
M146.859924,158.318237 
	C147.501282,158.877304 148.002640,159.759415 148.762268,160.822357 
	C148.251160,161.346573 147.481796,161.689987 146.376709,162.034103 
	C146.267288,160.903641 146.493607,159.772461 146.859924,158.318237 
z"/>
<path fill="#CB2324" opacity="1.000000" stroke="none" 
	d="
M146.998657,155.334671 
	C146.998169,155.002441 146.999649,154.508270 146.999939,154.261353 
	C147.445129,154.007843 147.890045,154.001236 148.668686,153.990601 
	C148.565491,154.955139 148.128540,155.923706 147.346405,156.944000 
	C147.000534,156.552780 146.999847,156.109848 146.998657,155.334671 
z"/>
<path fill="#CC2325" opacity="1.000000" stroke="none" 
	d="
M147.000000,145.000305 
	C146.877899,145.431839 146.755783,145.863052 146.633667,146.294266 
	C146.618408,145.944412 146.603180,145.594574 146.793671,145.122360 
	C146.999390,145.000000 147.000000,145.000000 147.000000,145.000305 
z"/>
<path fill="#CB2324" opacity="1.000000" stroke="none" 
	d="
M145.858093,162.109009 
	C146.033707,162.031311 146.041458,162.519638 146.038849,162.764008 
	C145.918304,162.734467 145.800385,162.460587 145.858093,162.109009 
z"/>
<path fill="#CC2325" opacity="1.000000" stroke="none" 
	d="
M142.002380,162.003052 
	C141.909012,162.039642 141.813263,162.073166 141.855789,162.051056 
	C141.994049,161.995422 142.000000,162.000000 142.002380,162.003052 
z"/>
<path fill="#CE2727" opacity="1.000000" stroke="none" 
	d="
M93.008255,106.008835 
	C93.000381,106.480110 92.992508,106.951393 92.612320,107.904404 
	C89.771469,109.133942 87.302948,109.881737 84.834419,110.629532 
	C80.515411,110.604469 76.196396,110.579414 71.435524,110.036728 
	C71.903397,105.215851 72.603386,100.854095 73.782845,96.626099 
	C74.923645,92.536629 75.466690,87.398499 82.023773,88.972870 
	C84.756195,88.985672 87.488609,88.998466 90.564896,89.408829 
	C90.947067,91.796753 90.181381,94.445763 91.172493,95.655609 
	C94.308128,99.483337 92.627487,102.170372 90.006012,104.599777 
	C90.002373,102.793282 90.002373,101.377419 90.002373,99.961548 
	C89.632401,99.921333 89.262421,99.881111 88.892448,99.840889 
	C88.460869,102.032181 88.029289,104.223480 87.434387,107.244019 
	C88.791473,106.060196 89.391235,105.537010 89.995865,105.310974 
	C91.003250,105.741699 92.005753,105.875267 93.008255,106.008835 
z"/>
<path fill="#B82324" opacity="1.000000" stroke="none" 
	d="
M82.019203,88.640625 
	C75.466690,87.398499 74.923645,92.536629 73.782845,96.626099 
	C72.603386,100.854095 71.903397,105.215851 70.994652,109.891556 
	C70.297363,110.388451 69.599075,110.512878 68.535110,110.417999 
	C68.169434,110.198700 68.028839,109.848770 68.028839,109.848770 
	C69.504524,102.957863 70.821388,96.024879 72.624283,89.220673 
	C72.899971,88.180214 75.360039,87.518341 76.921600,87.076462 
	C78.411697,86.654800 80.047791,86.749107 81.927559,86.590645 
	C81.932892,86.695831 81.973763,87.502113 82.019203,88.640625 
z"/>
<path fill="#F7F2F2" opacity="1.000000" stroke="none" 
	d="
M62.442497,88.979187 
	C61.533737,94.728233 60.250385,100.466179 58.880520,106.590118 
	C55.564884,102.409470 56.260033,97.333832 60.320702,94.420578 
	C59.446007,91.178711 58.592892,88.016838 57.739777,84.854965 
	C58.062698,84.769432 58.385624,84.683899 58.708546,84.598366 
	C59.828335,86.054939 60.948120,87.511513 62.442497,88.979187 
z"/>
<path fill="#9E0712" opacity="1.000000" stroke="none" 
	d="
M83.675095,124.111954 
	C85.367577,124.630096 86.725891,125.070038 88.084076,125.510368 
	C84.792992,127.738510 68.349510,127.632744 62.047131,124.701180 
	C68.479462,124.701180 74.911789,124.701180 81.664169,124.440201 
	C82.436447,124.130730 82.888695,124.082245 83.675095,124.111954 
z"/>
<path fill="#FAF7F5" opacity="1.000000" stroke="none" 
	d="
M99.004814,79.413895 
	C88.314369,79.834373 77.624420,79.897781 66.467041,79.925766 
	C67.501686,79.374573 69.006866,78.408745 70.505318,78.419098 
	C77.940521,78.470421 85.386604,79.098717 92.800362,78.804848 
	C95.059479,78.715309 97.227829,76.336143 99.476517,74.982254 
	C99.331116,76.239609 99.168213,77.648216 99.004814,79.413895 
z"/>
<path fill="#DC7778" opacity="1.000000" stroke="none" 
	d="
M85.267700,110.774506 
	C87.302948,109.881737 89.771469,109.133942 92.599953,108.257698 
	C93.265167,108.944717 93.570427,109.760185 93.815109,110.903580 
	C91.070015,111.127495 88.385498,111.023483 85.267700,110.774506 
z"/>
<path fill="#F7F2F2" opacity="1.000000" stroke="none" 
	d="
M64.582077,81.006622 
	C64.719772,81.818794 64.497414,82.634010 64.109566,83.726532 
	C63.101048,83.686577 62.258022,83.369324 61.414997,83.052063 
	C62.350670,82.371262 63.286346,81.690468 64.582077,81.006622 
z"/>
<path fill="#DC7778" opacity="1.000000" stroke="none" 
	d="
M67.679733,109.903458 
	C68.028839,109.848770 68.169434,110.198700 68.176117,110.387085 
	C67.015991,110.693878 65.849190,110.812279 64.377808,110.752083 
	C65.159027,110.368378 66.244820,110.163269 67.679733,109.903458 
z"/>
<path fill="#F7F4F1" opacity="1.000000" stroke="none" 
	d="
M54.954651,88.602173 
	C54.714218,88.207954 54.715992,87.815811 54.746124,87.425865 
	C54.746971,87.414925 55.050915,87.427406 55.213528,87.428955 
	C55.209293,87.820824 55.205059,88.212685 54.954651,88.602173 
z"/>
<path fill="#F7F4F1" opacity="1.000000" stroke="none" 
	d="
M56.115242,79.297775 
	C56.404575,79.215675 56.789024,79.305878 56.871624,79.515190 
	C56.939034,79.686020 56.645786,79.999168 56.512451,80.249214 
	C56.368256,80.006676 56.224052,79.764130 56.115242,79.297775 
z"/>
<path fill="#FAF7F5" opacity="1.000000" stroke="none" 
	d="
M69.011223,75.755859 
	C68.901634,75.590034 68.955376,75.422752 69.009109,75.255470 
	C69.064262,75.421783 69.119408,75.588097 69.011223,75.755859 
z"/>
<path fill="#DC7778" opacity="1.000000" stroke="none" 
	d="
M62.485527,110.364563 
	C62.447105,110.164787 62.409702,109.939438 62.372299,109.714096 
	C62.508724,109.791405 62.645145,109.868713 62.633743,110.167419 
	C62.485916,110.388824 62.486546,110.338989 62.485527,110.364563 
z"/>
<path fill="#F3DCDA" opacity="1.000000" stroke="none" 
	d="
M100.760834,103.513901 
	C98.022263,104.458084 96.486359,103.647385 97.589569,100.148804 
	C98.800995,101.087914 99.674767,102.197365 100.760834,103.513901 
z"/>
<path fill="#F3DCDA" opacity="1.000000" stroke="none" 
	d="
M115.358353,104.768951 
	C114.502563,104.813644 113.865524,104.671173 113.127510,104.213181 
	C113.876724,104.125702 114.726913,104.353752 115.358353,104.768951 
z"/>
<path fill="#F3DCDA" opacity="1.000000" stroke="none" 
	d="
M98.816887,97.759560 
	C98.490517,97.669136 98.479767,97.439804 98.834045,97.090034 
	C99.050514,97.205116 99.028328,97.422134 98.816887,97.759560 
z"/>
<path fill="#D42A2C" opacity="1.000000" stroke="none" 
	d="
M93.282661,105.761803 
	C92.005753,105.875267 91.003250,105.741699 90.000137,105.304390 
	C89.999535,105.000656 90.009659,104.990402 90.009659,104.990402 
	C92.627487,102.170372 94.308128,99.483337 91.172493,95.655609 
	C90.181381,94.445763 90.947067,91.796753 90.957413,89.419823 
	C92.796623,89.038406 94.587173,89.043556 96.682037,89.031738 
	C98.893387,92.843658 95.895561,95.898232 95.309090,99.330620 
	C94.950302,101.430489 94.155861,103.455910 93.282661,105.761803 
z"/>
<path fill="#AE2123" opacity="1.000000" stroke="none" 
	d="
M135.000916,112.999176 
	C134.298660,112.050255 133.595490,111.102158 132.892303,110.154060 
	C133.357498,109.919472 133.822693,109.684891 134.287888,109.450302 
	C134.523972,110.390999 134.760040,111.331703 134.997147,112.637100 
	C134.998169,113.001808 135.000000,113.000000 135.000916,112.999176 
z"/>
<path fill="#AE2123" opacity="1.000000" stroke="none" 
	d="
M124.658569,155.995300 
	C124.762650,156.513626 124.532631,157.032669 124.302612,157.551712 
	C123.892052,157.236725 123.481499,156.921753 123.029205,156.309296 
	C123.433136,156.006561 123.878807,156.001297 124.658569,155.995300 
z"/>
<path fill="#AD2222" opacity="1.000000" stroke="none" 
	d="
M117.000717,150.999390 
	C117.956490,150.998779 118.911537,150.998779 119.866592,150.998779 
	C119.847290,151.262512 119.827995,151.526245 119.808693,151.789978 
	C119.005615,151.696136 118.202545,151.602310 117.199348,151.254852 
	C116.999229,151.001221 117.000000,151.000000 117.000717,150.999390 
z"/>
<path fill="#AE2123" opacity="1.000000" stroke="none" 
	d="
M127.355087,136.263916 
	C127.369949,136.009720 127.505646,135.871094 127.641342,135.732468 
	C127.586197,135.948135 127.531059,136.163818 127.355087,136.263916 
z"/>
<path fill="#AE2123" opacity="1.000000" stroke="none" 
	d="
M124.759773,135.989532 
	C124.590645,136.101700 124.419975,136.046814 124.249298,135.991913 
	C124.418938,135.935440 124.588585,135.878952 124.759773,135.989532 
z"/>
<path fill="#AE2123" opacity="1.000000" stroke="none" 
	d="
M125.532639,132.552032 
	C125.476471,132.585846 125.588814,132.518204 125.532639,132.552032 
z"/>
<path fill="#C22322" opacity="1.000000" stroke="none" 
	d="
M96.366776,111.786949 
	C96.767448,110.435715 97.182045,109.419395 97.596649,108.403084 
	C98.033829,108.766968 98.471016,109.130859 98.908195,109.494751 
	C98.065704,110.370453 97.223206,111.246162 96.366776,111.786949 
z"/>
<path fill="#D42A2B" opacity="1.000000" stroke="none" 
	d="
M149.282623,144.763245 
	C150.997192,134.615601 152.992203,124.230194 155.000015,113.442055 
	C155.012802,113.039322 155.504074,113.011307 155.749924,113.002747 
	C155.626785,117.232803 155.691696,121.566551 154.788208,125.688004 
	C153.394958,132.043549 151.338333,138.253662 149.282623,144.763245 
z"/>
<path fill="#CA2122" opacity="1.000000" stroke="none" 
	d="
M153.862122,145.054352 
	C153.908081,145.036240 153.816177,145.072479 153.862122,145.054352 
z"/>
<path fill="#D42A2C" opacity="1.000000" stroke="none" 
	d="
M89.995262,105.007240 
	C89.391235,105.537010 88.791473,106.060196 87.434387,107.244019 
	C88.029289,104.223480 88.460869,102.032181 88.892448,99.840889 
	C89.262421,99.881111 89.632401,99.921333 90.002373,99.961548 
	C90.002373,101.377419 90.002373,102.793282 90.006012,104.599777 
	C90.009659,104.990402 89.999535,105.000656 89.995262,105.007240 
z"/>
</svg>