<svg version="1.1" id="Layer_1" xmlns="http://www.w3.org/2000/svg" xmlns:xlink="http://www.w3.org/1999/xlink" x="0px" y="0px"
	 width="100%" viewBox="0 0 396 212" enable-background="new 0 0 396 212" xml:space="preserve">
<path fill="#FEFEFE" opacity="1.000000" stroke="none" 
	d="
M199.000000,1.000003 
	C264.975861,1.000000 330.951691,1.000000 396.963776,1.000000 
	C396.963776,71.616631 396.963776,142.233292 396.963776,212.924973 
	C265.098358,212.924973 133.196671,212.924973 1.147487,212.924973 
	C1.147487,142.457794 1.147487,71.915176 1.147487,1.000000 
	C60.020370,1.000000 119.041527,1.000000 178.358429,1.362449 
	C147.992523,6.175128 123.487740,29.666702 118.069748,59.507919 
	C112.452171,90.448372 127.901031,118.307411 145.651443,129.606812 
	C147.047577,125.368828 148.152176,120.978798 149.953201,116.895973 
	C151.257568,113.939026 150.534683,112.288528 148.517578,110.017723 
	C134.301605,94.013786 130.087219,75.527679 136.737930,55.206844 
	C145.029587,29.872229 171.266876,14.127667 196.733032,18.465015 
	C224.376892,23.173267 243.851089,46.045940 243.486847,73.642426 
	C243.353500,83.744583 240.762848,93.207939 234.787460,102.203514 
	C232.761200,98.278076 231.038620,94.940941 229.316040,91.603798 
	C229.028473,91.729866 228.740921,91.855942 228.453369,91.982010 
	C227.873001,102.525925 227.292618,113.069839 226.694977,123.927734 
	C237.852203,122.572296 248.317627,121.300911 259.946686,119.888161 
	C255.308304,117.400864 251.726532,115.480171 247.970200,113.465881 
	C248.557678,112.484940 248.970871,111.779854 249.398270,111.083496 
	C275.888611,67.924286 252.416504,13.050275 202.907974,2.354551 
	C201.570206,2.065542 200.301117,1.458657 199.000000,1.000003 
M213.502716,107.024246 
	C197.748871,87.207672 175.755539,88.038208 162.358078,109.535233 
	C158.314316,116.023697 156.400772,123.840645 153.519348,131.052216 
	C152.385803,133.889252 153.329926,135.532288 156.140869,136.862564 
	C166.495712,141.762955 177.147720,144.190094 188.776596,144.250992 
	C200.270752,144.311203 210.689850,141.655930 220.934616,137.013336 
	C223.964203,135.640427 225.016174,133.752731 223.816574,130.843445 
	C220.607605,123.060905 217.240280,115.343658 213.502716,107.024246 
M186.203827,53.795197 
	C177.434799,55.719696 171.866028,62.424129 172.281601,70.556595 
	C172.701065,78.765083 178.989716,85.374779 187.055099,86.084297 
	C196.720642,86.934563 204.788330,79.858810 205.020447,70.327866 
	C205.263275,60.355869 197.864471,53.531380 186.203827,53.795197 
M107.500809,174.577026 
	C108.842690,168.344666 107.086098,165.596329 101.008469,165.222290 
	C96.246490,164.929214 91.452049,165.163528 85.640450,165.163528 
	C89.448997,173.615662 88.837074,181.724442 85.964722,189.856079 
	C92.301872,189.856079 97.642609,190.258484 102.896233,189.753891 
	C109.417068,189.127579 111.455009,183.312531 107.434128,178.123764 
	C106.915497,177.454498 107.153267,176.199066 107.500809,174.577026 
M151.026566,178.424576 
	C149.435959,182.118179 147.845352,185.811783 146.153137,189.741318 
	C150.735016,189.741318 154.180862,189.741318 158.613495,189.741318 
	C157.520325,187.279419 156.697174,185.425644 155.840027,183.495300 
	C158.328278,183.495300 160.746582,183.495300 162.810745,183.495300 
	C161.782669,185.579453 160.889969,187.389130 159.693054,189.815552 
	C165.424576,189.815552 169.859787,189.815552 174.788239,189.815552 
	C171.632797,181.495163 168.599380,173.496536 165.541672,165.433838 
	C161.273727,165.433838 156.862900,165.433838 153.157715,165.433838 
	C152.465012,169.821777 151.847931,173.730713 151.026566,178.424576 
M201.990097,190.274704 
	C206.059479,189.283371 206.332748,186.442886 205.667130,182.493225 
	C204.345627,183.397247 203.449005,184.010605 202.908859,184.380112 
	C201.672699,181.941223 200.516785,179.660660 200.021973,178.684433 
	C200.882782,175.302094 202.705307,172.233124 201.888763,170.251770 
	C200.988693,168.067764 197.832458,165.895294 195.361389,165.477310 
	C190.874756,164.718369 186.167770,165.262024 180.330276,165.262024 
	C184.436569,173.568329 183.817719,181.565994 180.726700,189.784592 
	C185.076035,189.784592 188.648560,189.784592 192.897491,189.784592 
	C191.988251,186.393570 191.182419,183.388153 190.376587,180.382751 
	C191.000885,180.163193 191.625183,179.943634 192.249496,179.724075 
	C192.825668,181.013702 193.839844,182.283356 193.899689,183.596512 
	C194.119583,188.423004 196.647644,190.451004 201.990097,190.274704 
M133.053497,189.848511 
	C140.228333,185.973267 142.790405,176.777008 138.625595,169.848099 
	C136.182037,165.782791 131.223587,163.853760 125.514503,164.765366 
	C120.601120,165.549911 117.173386,168.314880 116.019623,173.105087 
	C113.110680,185.182465 120.031250,192.267853 133.053497,189.848511 
M219.509583,190.031036 
	C221.337997,189.996689 223.177124,190.077240 224.992920,189.907715 
	C232.145172,189.239990 236.297653,184.938309 236.613205,177.981583 
	C236.905930,171.528870 232.978165,166.410934 226.205658,165.527130 
	C221.688416,164.937607 217.031937,165.415161 212.384842,165.415161 
	C213.083038,169.729080 214.228012,173.725311 214.236053,177.723862 
	C214.244019,181.677338 213.103683,185.633118 212.395737,190.031082 
	C214.646866,190.031082 216.608810,190.031082 219.509583,190.031036 
M263.462555,170.968567 
	C263.055054,177.232147 262.647552,183.495728 262.238953,189.776382 
	C266.093750,189.776382 270.183655,189.776382 275.714569,189.776382 
	C273.660736,186.546021 272.146759,184.164825 270.370605,181.371216 
	C277.942474,180.484589 277.942474,180.484589 277.151825,176.124191 
	C275.268677,176.039322 273.338013,175.952301 271.249298,175.858170 
	C271.249298,173.792892 271.249298,172.051483 271.249298,169.480438 
	C275.106354,170.966293 278.482025,172.266693 282.353088,173.757935 
	C282.353088,170.109253 282.353088,167.729248 282.353088,165.374146 
	C275.223846,165.374146 268.477692,165.374146 260.504059,165.374146 
	C261.563568,167.455124 262.266785,168.836319 263.462555,170.968567 
M291.032745,172.332932 
	C292.706482,175.201492 295.166260,177.904465 295.816010,180.988754 
	C296.379700,183.664505 294.893433,186.772125 294.293701,189.786743 
	C298.535736,189.786743 301.980804,189.786743 306.035095,189.786743 
	C305.647675,188.110641 305.334747,186.786224 305.036499,185.458496 
	C304.702545,183.971664 303.674225,182.154160 304.184174,181.052917 
	C305.919189,177.306076 308.206512,173.815826 310.266937,170.218399 
	C311.075653,168.806396 311.842010,167.370132 312.916473,165.421036 
	C308.733185,165.421036 305.840210,165.421036 303.273712,165.421036 
	C302.972198,168.833664 302.698181,171.934921 302.424164,175.036179 
	C301.648041,175.006271 300.871948,174.976364 300.095825,174.946472 
	C299.904297,171.804718 299.712799,168.662949 299.508881,165.318207 
	C295.749115,165.318207 291.978271,165.318207 286.615967,165.318207 
	C288.329803,168.011856 289.490051,169.835373 291.032745,172.332932 
M245.676285,190.013733 
	C248.467682,190.013733 251.259094,190.013733 255.058456,190.013733 
	C251.307632,181.590683 251.322571,173.535065 254.901978,165.343506 
	C250.400162,165.343506 246.814514,165.343506 243.103531,165.343506 
	C242.985947,166.184311 242.853165,166.815536 242.823059,167.451614 
	C242.799850,167.941879 242.752487,168.525726 242.977020,168.918747 
	C246.210861,174.579636 246.072784,180.170135 243.189407,185.980911 
	C242.757599,186.851105 244.181198,188.641968 245.676285,190.013733 
M208.606308,41.625134 
	C211.085922,38.030132 213.565552,34.435135 216.240845,30.556440 
	C214.419617,29.539762 213.187729,28.852076 211.731110,28.038927 
	C209.446884,32.024323 207.334656,35.709641 205.143860,39.532032 
	C206.341309,40.271900 207.178833,40.789375 208.606308,41.625134 
M152.227768,91.041245 
	C149.541321,92.606895 146.854858,94.172554 143.838028,95.930740 
	C144.728470,97.374954 145.465164,98.569809 146.337387,99.984489 
	C150.236862,97.752243 153.897675,95.656616 157.530838,93.576813 
	C155.719925,89.809883 155.719925,89.809883 152.227768,91.041245 
M222.690964,50.300510 
	C218.988098,51.862068 219.645981,53.804340 222.285721,56.190926 
	C225.983185,54.004868 229.619370,51.855053 233.567230,49.520962 
	C232.557220,48.021496 231.781876,46.870396 230.931107,45.607319 
	C228.182663,47.181557 225.762604,48.567703 222.690964,50.300510 
M190.412292,35.797100 
	C190.717712,31.468006 191.023117,27.138912 191.345261,22.572514 
	C189.299042,22.572514 187.944885,22.572514 186.176025,22.572514 
	C186.176025,26.299433 185.917114,29.754255 186.329315,33.127052 
	C186.457733,34.177704 188.401794,35.006451 190.412292,35.797100 
M141.748383,75.147987 
	C145.013840,75.147987 148.279297,75.147987 151.505524,75.147987 
	C151.689529,69.751312 148.870926,68.940620 136.969604,71.094910 
	C138.650726,72.860168 139.739822,74.003784 141.748383,75.147987 
M165.285919,28.336660 
	C164.063171,29.006372 162.840424,29.676085 161.402847,30.463457 
	C163.857162,34.600296 166.019440,38.244892 168.235077,41.979450 
	C169.765594,41.012619 170.864120,40.318672 172.253387,39.441067 
	C170.085175,35.779560 167.990601,32.242413 165.285919,28.336660 
M230.692871,75.174118 
	C233.451584,75.174118 236.210297,75.174118 238.957382,75.174118 
	C238.961670,69.660034 236.135681,68.852249 225.979034,70.823662 
	C224.724030,74.457726 226.278336,75.646706 230.692871,75.174118 
M152.527206,49.067501 
	C150.536606,47.953201 148.545990,46.838902 146.278900,45.569824 
	C145.443207,47.008453 144.744583,48.211151 143.890457,49.681526 
	C147.877563,51.986259 151.558655,54.114098 155.472382,56.376423 
	C156.317719,54.827663 156.978500,53.617050 157.731705,52.237099 
	C155.973160,51.165218 154.574402,50.312641 152.527206,49.067501 
z"/>
<path fill="#050505" opacity="1.000000" stroke="none" 
	d="
M198.531586,1.000003 
	C200.301117,1.458657 201.570206,2.065542 202.907974,2.354551 
	C252.416504,13.050275 275.888611,67.924286 249.398270,111.083496 
	C248.970871,111.779854 248.557678,112.484940 247.970200,113.465881 
	C251.726532,115.480171 255.308304,117.400864 259.946686,119.888161 
	C248.317627,121.300911 237.852203,122.572296 226.694977,123.927734 
	C227.292618,113.069839 227.873001,102.525925 228.453369,91.982010 
	C228.740921,91.855942 229.028473,91.729866 229.316040,91.603798 
	C231.038620,94.940941 232.761200,98.278076 234.787460,102.203514 
	C240.762848,93.207939 243.353500,83.744583 243.486847,73.642426 
	C243.851089,46.045940 224.376892,23.173267 196.733032,18.465015 
	C171.266876,14.127667 145.029587,29.872229 136.737930,55.206844 
	C130.087219,75.527679 134.301605,94.013786 148.517578,110.017723 
	C150.534683,112.288528 151.257568,113.939026 149.953201,116.895973 
	C148.152176,120.978798 147.047577,125.368828 145.651443,129.606812 
	C127.901031,118.307411 112.452171,90.448372 118.069748,59.507919 
	C123.487740,29.666702 147.992523,6.175128 178.827087,1.362449 
	C185.354401,1.000000 191.708786,1.000000 198.531586,1.000003 
z"/>
<path fill="#333849" opacity="1.000000" stroke="none" 
	d="
M213.719284,107.312363 
	C217.240280,115.343658 220.607605,123.060905 223.816574,130.843445 
	C225.016174,133.752731 223.964203,135.640427 220.934616,137.013336 
	C210.689850,141.655930 200.270752,144.311203 188.776596,144.250992 
	C177.147720,144.190094 166.495712,141.762955 156.140869,136.862564 
	C153.329926,135.532288 152.385803,133.889252 153.519348,131.052216 
	C156.400772,123.840645 158.314316,116.023697 162.358078,109.535233 
	C175.755539,88.038208 197.748871,87.207672 213.719284,107.312363 
z"/>
<path fill="#34394A" opacity="1.000000" stroke="none" 
	d="
M186.590271,53.739975 
	C197.864471,53.531380 205.263275,60.355869 205.020447,70.327866 
	C204.788330,79.858810 196.720642,86.934563 187.055099,86.084297 
	C178.989716,85.374779 172.701065,78.765083 172.281601,70.556595 
	C171.866028,62.424129 177.434799,55.719696 186.590271,53.739975 
z"/>
<path fill="#3E4353" opacity="1.000000" stroke="none" 
	d="
M107.270721,174.896088 
	C107.153267,176.199066 106.915497,177.454498 107.434128,178.123764 
	C111.455009,183.312531 109.417068,189.127579 102.896233,189.753891 
	C97.642609,190.258484 92.301872,189.856079 85.964722,189.856079 
	C88.837074,181.724442 89.448997,173.615662 85.640450,165.163528 
	C91.452049,165.163528 96.246490,164.929214 101.008469,165.222290 
	C107.086098,165.596329 108.842690,168.344666 107.270721,174.896088 
M95.751060,182.632416 
	C96.738495,183.487228 97.644478,184.831421 98.743752,185.014404 
	C99.409630,185.125229 101.118217,183.354492 101.031212,182.577774 
	C100.900925,181.414780 99.603333,180.382538 98.802216,179.294693 
	C97.785095,180.107040 96.767982,180.919388 95.751060,182.632416 
z"/>
<path fill="#3B4050" opacity="1.000000" stroke="none" 
	d="
M151.128708,178.032120 
	C151.847931,173.730713 152.465012,169.821777 153.157715,165.433838 
	C156.862900,165.433838 161.273727,165.433838 165.541672,165.433838 
	C168.599380,173.496536 171.632797,181.495163 174.788239,189.815552 
	C169.859787,189.815552 165.424576,189.815552 159.693054,189.815552 
	C160.889969,187.389130 161.782669,185.579453 162.810745,183.495300 
	C160.746582,183.495300 158.328278,183.495300 155.840027,183.495300 
	C156.697174,185.425644 157.520325,187.279419 158.613495,189.741318 
	C154.180862,189.741318 150.735016,189.741318 146.153137,189.741318 
	C147.845352,185.811783 149.435959,182.118179 151.128708,178.032120 
z"/>
<path fill="#393E4E" opacity="1.000000" stroke="none" 
	d="
M201.619965,190.326599 
	C196.647644,190.451004 194.119583,188.423004 193.899689,183.596512 
	C193.839844,182.283356 192.825668,181.013702 192.249496,179.724075 
	C191.625183,179.943634 191.000885,180.163193 190.376587,180.382751 
	C191.182419,183.388153 191.988251,186.393570 192.897491,189.784592 
	C188.648560,189.784592 185.076035,189.784592 180.726700,189.784592 
	C183.817719,181.565994 184.436569,173.568329 180.330276,165.262024 
	C186.167770,165.262024 190.874756,164.718369 195.361389,165.477310 
	C197.832458,165.895294 200.988693,168.067764 201.888763,170.251770 
	C202.705307,172.233124 200.882782,175.302094 200.021973,178.684433 
	C200.516785,179.660660 201.672699,181.941223 202.908859,184.380112 
	C203.449005,184.010605 204.345627,183.397247 205.667130,182.493225 
	C206.332748,186.442886 206.059479,189.283371 201.619965,190.326599 
M190.348526,174.053146 
	C191.538666,174.492737 192.852203,175.440857 193.875458,175.192596 
	C194.554306,175.027924 195.362305,173.004105 195.113739,172.081604 
	C194.865738,171.161118 193.372787,170.576065 192.425644,169.843948 
	C191.728531,170.986267 191.031433,172.128586 190.348526,174.053146 
z"/>
<path fill="#373C4D" opacity="1.000000" stroke="none" 
	d="
M132.675568,189.939880 
	C120.031250,192.267853 113.110680,185.182465 116.019623,173.105087 
	C117.173386,168.314880 120.601120,165.549911 125.514503,164.765366 
	C131.223587,163.853760 136.182037,165.782791 138.625595,169.848099 
	C142.790405,176.777008 140.228333,185.973267 132.675568,189.939880 
M124.042191,178.336945 
	C125.372086,180.549362 126.701981,182.761780 128.031860,184.974197 
	C129.246826,182.682816 131.480164,180.361740 131.414398,178.107742 
	C131.335342,175.398178 129.417465,170.546219 128.089279,170.475067 
	C123.864059,170.248672 124.426994,174.491104 124.042191,178.336945 
z"/>
<path fill="#3E4353" opacity="1.000000" stroke="none" 
	d="
M219.040161,190.031067 
	C216.608810,190.031082 214.646866,190.031082 212.395737,190.031082 
	C213.103683,185.633118 214.244019,181.677338 214.236053,177.723862 
	C214.228012,173.725311 213.083038,169.729080 212.384842,165.415161 
	C217.031937,165.415161 221.688416,164.937607 226.205658,165.527130 
	C232.978165,166.410934 236.905930,171.528870 236.613205,177.981583 
	C236.297653,184.938309 232.145172,189.239990 224.992920,189.907715 
	C223.177124,190.077240 221.337997,189.996689 219.040161,190.031067 
M221.825363,179.397842 
	C221.825363,181.194290 221.825363,182.990753 221.825363,184.806656 
	C226.922760,184.531876 228.683578,182.096313 228.267014,176.384781 
	C227.989334,172.577499 226.536285,169.979401 221.825241,169.954956 
	C221.825241,173.185211 221.825241,175.819382 221.825363,179.397842 
z"/>
<path fill="#3D4252" opacity="1.000000" stroke="none" 
	d="
M263.216278,170.593048 
	C262.266785,168.836319 261.563568,167.455124 260.504059,165.374146 
	C268.477692,165.374146 275.223846,165.374146 282.353088,165.374146 
	C282.353088,167.729248 282.353088,170.109253 282.353088,173.757935 
	C278.482025,172.266693 275.106354,170.966293 271.249298,169.480438 
	C271.249298,172.051483 271.249298,173.792892 271.249298,175.858170 
	C273.338013,175.952301 275.268677,176.039322 277.151825,176.124191 
	C277.942474,180.484589 277.942474,180.484589 270.370605,181.371216 
	C272.146759,184.164825 273.660736,186.546021 275.714569,189.776382 
	C270.183655,189.776382 266.093750,189.776382 262.238953,189.776382 
	C262.647552,183.495728 263.055054,177.232147 263.216278,170.593048 
z"/>
<path fill="#3C4151" opacity="1.000000" stroke="none" 
	d="
M290.841492,171.995911 
	C289.490051,169.835373 288.329803,168.011856 286.615967,165.318207 
	C291.978271,165.318207 295.749115,165.318207 299.508881,165.318207 
	C299.712799,168.662949 299.904297,171.804718 300.095825,174.946472 
	C300.871948,174.976364 301.648041,175.006271 302.424164,175.036179 
	C302.698181,171.934921 302.972198,168.833664 303.273712,165.421036 
	C305.840210,165.421036 308.733185,165.421036 312.916473,165.421036 
	C311.842010,167.370132 311.075653,168.806396 310.266937,170.218399 
	C308.206512,173.815826 305.919189,177.306076 304.184174,181.052917 
	C303.674225,182.154160 304.702545,183.971664 305.036499,185.458496 
	C305.334747,186.786224 305.647675,188.110641 306.035095,189.786743 
	C301.980804,189.786743 298.535736,189.786743 294.293701,189.786743 
	C294.893433,186.772125 296.379700,183.664505 295.816010,180.988754 
	C295.166260,177.904465 292.706482,175.201492 290.841492,171.995911 
z"/>
<path fill="#383D4E" opacity="1.000000" stroke="none" 
	d="
M245.211395,190.010330 
	C244.181198,188.641968 242.757599,186.851105 243.189407,185.980911 
	C246.072784,180.170135 246.210861,174.579636 242.977020,168.918747 
	C242.752487,168.525726 242.799850,167.941879 242.823059,167.451614 
	C242.853165,166.815536 242.985947,166.184311 243.103531,165.343506 
	C246.814514,165.343506 250.400162,165.343506 254.901978,165.343506 
	C251.322571,173.535065 251.307632,181.590683 255.058456,190.013733 
	C251.259094,190.013733 248.467682,190.013733 245.211395,190.010330 
z"/>
<path fill="#404454" opacity="1.000000" stroke="none" 
	d="
M208.311325,41.465996 
	C207.178833,40.789375 206.341309,40.271900 205.143860,39.532032 
	C207.334656,35.709641 209.446884,32.024323 211.731110,28.038927 
	C213.187729,28.852076 214.419617,29.539762 216.240845,30.556440 
	C213.565552,34.435135 211.085922,38.030132 208.311325,41.465996 
z"/>
<path fill="#3D4252" opacity="1.000000" stroke="none" 
	d="
M152.533447,90.892853 
	C155.719925,89.809883 155.719925,89.809883 157.530838,93.576813 
	C153.897675,95.656616 150.236862,97.752243 146.337387,99.984489 
	C145.465164,98.569809 144.728470,97.374954 143.838028,95.930740 
	C146.854858,94.172554 149.541321,92.606895 152.533447,90.892853 
z"/>
<path fill="#3D4252" opacity="1.000000" stroke="none" 
	d="
M223.016754,50.127178 
	C225.762604,48.567703 228.182663,47.181557 230.931107,45.607319 
	C231.781876,46.870396 232.557220,48.021496 233.567230,49.520962 
	C229.619370,51.855053 225.983185,54.004868 222.285721,56.190926 
	C219.645981,53.804340 218.988098,51.862068 223.016754,50.127178 
z"/>
<path fill="#444858" opacity="1.000000" stroke="none" 
	d="
M189.963486,35.866940 
	C188.401794,35.006451 186.457733,34.177704 186.329315,33.127052 
	C185.917114,29.754255 186.176025,26.299433 186.176025,22.572514 
	C187.944885,22.572514 189.299042,22.572514 191.345261,22.572514 
	C191.023117,27.138912 190.717712,31.468006 189.963486,35.866940 
z"/>
<path fill="#454A59" opacity="1.000000" stroke="none" 
	d="
M141.288651,75.147690 
	C139.739822,74.003784 138.650726,72.860168 136.969604,71.094910 
	C148.870926,68.940620 151.689529,69.751312 151.505524,75.147987 
	C148.279297,75.147987 145.013840,75.147987 141.288651,75.147690 
z"/>
<path fill="#3E4252" opacity="1.000000" stroke="none" 
	d="
M165.590973,28.520962 
	C167.990601,32.242413 170.085175,35.779560 172.253387,39.441067 
	C170.864120,40.318672 169.765594,41.012619 168.235077,41.979450 
	C166.019440,38.244892 163.857162,34.600296 161.402847,30.463457 
	C162.840424,29.676085 164.063171,29.006372 165.590973,28.520962 
z"/>
<path fill="#4E5261" opacity="1.000000" stroke="none" 
	d="
M230.233566,75.174149 
	C226.278336,75.646706 224.724030,74.457726 225.979034,70.823662 
	C236.135681,68.852249 238.961670,69.660034 238.957382,75.174118 
	C236.210297,75.174118 233.451584,75.174118 230.233566,75.174149 
z"/>
<path fill="#3F4454" opacity="1.000000" stroke="none" 
	d="
M152.851425,49.263779 
	C154.574402,50.312641 155.973160,51.165218 157.731705,52.237099 
	C156.978500,53.617050 156.317719,54.827663 155.472382,56.376423 
	C151.558655,54.114098 147.877563,51.986259 143.890457,49.681526 
	C144.744583,48.211151 145.443207,47.008453 146.278900,45.569824 
	C148.545990,46.838902 150.536606,47.953201 152.851425,49.263779 
z"/>
<path fill="#F4F4F5" opacity="1.000000" stroke="none" 
	d="
M95.750961,182.182068 
	C96.767982,180.919388 97.785095,180.107040 98.802216,179.294693 
	C99.603333,180.382538 100.900925,181.414780 101.031212,182.577774 
	C101.118217,183.354492 99.409630,185.125229 98.743752,185.014404 
	C97.644478,184.831421 96.738495,183.487228 95.750961,182.182068 
z"/>
<path fill="#E4E5E7" opacity="1.000000" stroke="none" 
	d="
M190.341431,173.662018 
	C191.031433,172.128586 191.728531,170.986267 192.425644,169.843948 
	C193.372787,170.576065 194.865738,171.161118 195.113739,172.081604 
	C195.362305,173.004105 194.554306,175.027924 193.875458,175.192596 
	C192.852203,175.440857 191.538666,174.492737 190.341431,173.662018 
z"/>
<path fill="#F1F1F3" opacity="1.000000" stroke="none" 
	d="
M124.038651,177.917465 
	C124.426994,174.491104 123.864059,170.248672 128.089279,170.475067 
	C129.417465,170.546219 131.335342,175.398178 131.414398,178.107742 
	C131.480164,180.361740 129.246826,182.682816 128.031860,184.974197 
	C126.701981,182.761780 125.372086,180.549362 124.038651,177.917465 
z"/>
<path fill="#F9F9F9" opacity="1.000000" stroke="none" 
	d="
M221.825302,178.925690 
	C221.825241,175.819382 221.825241,173.185211 221.825241,169.954956 
	C226.536285,169.979401 227.989334,172.577499 228.267014,176.384781 
	C228.683578,182.096313 226.922760,184.531876 221.825363,184.806656 
	C221.825363,182.990753 221.825363,181.194290 221.825302,178.925690 
z"/>
</svg>